<?xml version="1.0" encoding="UTF-8" standalone="no"?>
<!-- Created with Inkscape (http://www.inkscape.org/) -->

<svg
   xmlns:dc="http://purl.org/dc/elements/1.1/"
   xmlns:cc="http://creativecommons.org/ns#"
   xmlns:rdf="http://www.w3.org/1999/02/22-rdf-syntax-ns#"
   xmlns:svg="http://www.w3.org/2000/svg"
   xmlns="http://www.w3.org/2000/svg"
   xmlns:sodipodi="http://sodipodi.sourceforge.net/DTD/sodipodi-0.dtd"
   xmlns:inkscape="http://www.inkscape.org/namespaces/inkscape"
   width="256"
   height="256"
   id="svg9879"
   version="1.1"
   inkscape:version="0.48.0 r9654"
   sodipodi:docname="New document 3">
  <defs
     id="defs9881" />
  <sodipodi:namedview
     id="base"
     pagecolor="#ffffff"
     bordercolor="#666666"
     borderopacity="1.0"
     inkscape:pageopacity="0.0"
     inkscape:pageshadow="2"
     inkscape:zoom="0.87327349"
     inkscape:cx="167.07136"
     inkscape:cy="526.18109"
     inkscape:document-units="px"
     inkscape:current-layer="layer1"
     showgrid="false"
     inkscape:window-width="1920"
     inkscape:window-height="1138"
     inkscape:window-x="-8"
     inkscape:window-y="32"
     inkscape:window-maximized="1" />
  <metadata
     id="metadata9884">
    <rdf:RDF>
      <cc:Work
         rdf:about="">
        <dc:format>image/svg+xml</dc:format>
        <dc:type
           rdf:resource="http://purl.org/dc/dcmitype/StillImage" />
        <dc:title></dc:title>
      </cc:Work>
    </rdf:RDF>
  </metadata>
  <g
     inkscape:label="Layer 1"
     inkscape:groupmode="layer"
     id="layer1"
     transform="translate(0,-796.36218)">
    <g
       id="g9900"
       transform="matrix(13.75,0,0,14.864865,2328,-1850.1337)"
       style="stroke:#000000;stroke-opacity:1;stroke-width:0.06994685000000001;stroke-miterlimit:4;stroke-dasharray:none;fill:#ffffff;fill-opacity:1">
      <g
         id="g4925"
         transform="translate(-188,-104.9521)"
         style="stroke:#000000;stroke-opacity:1;stroke-width:0.06994685000000001;stroke-miterlimit:4;stroke-dasharray:none;fill:#ffffff;fill-opacity:1">
        <circle
           cx="28.245001"
           cy="292.746"
           r="1"
           id="circle4927"
           sodipodi:cx="28.245001"
           sodipodi:cy="292.746"
           sodipodi:rx="1"
           sodipodi:ry="1"
           d="m 29.245001,292.746 c 0,0.55229 -0.447715,1 -1,1 -0.552285,0 -1,-0.44771 -1,-1 0,-0.55228 0.447715,-1 1,-1 0.552285,0 1,0.44772 1,1 z"
           style="stroke:#000000;stroke-opacity:1;stroke-width:0.06994685000000001;stroke-miterlimit:4;stroke-dasharray:none;fill:#ffffff;fill-opacity:1" />
      </g>
      <path
         inkscape:connector-curvature="0"
         id="path4931"
         d="m -162,191.0479 h 7 l 0,0 0,0 v -2.539 l -1.108,-2.01 -1.505,3.251 -0.887,-0.908 c 0,0 -1.229,0.456 -1.633,1.157 -0.645,-0.351 -0.995,0 -0.995,0 l -0.872,1.049 z"
         style="stroke:#000000;stroke-opacity:1;stroke-width:0.06994685000000001;stroke-miterlimit:4;stroke-dasharray:none;fill:#ffffff;fill-opacity:1" />
      <path
         inkscape:connector-curvature="0"
         id="path4935"
         d="m -154,182.6629 v -1.139 -1.138 -1.138 h -12 -2 v 2.276 5.693 1.139 1.138 h 3 v 4.554 h 13 v -11.385 h -2 z m -11,4.554 h -1 v -5.693 h 10 v 1.139 h -9 v 4.554 z m 11,4.554 h -9 v -6.831 h 7 2 v 6.831 z"
         style="stroke:#000000;stroke-opacity:1;stroke-width:0.06994685000000001;stroke-miterlimit:4;stroke-dasharray:none;fill:#ffffff;fill-opacity:1" />
    </g>
  </g>
</svg>
