<svg width="1024" height="628" xmlns="http://www.w3.org/2000/svg" xmlns:xlink="http://www.w3.org/1999/xlink">
 <defs>
  <linearGradient id="imagebot_83">
   <stop stop-color="#ffffff" id="imagebot_88" offset="0"/>
   <stop stop-color="#ffffff" stop-opacity="0" id="imagebot_87" offset="1"/>
  </linearGradient>
  <linearGradient id="imagebot_84">
   <stop stop-color="#ffffff" id="imagebot_86" offset="0"/>
   <stop stop-color="#ffffff" stop-opacity="0" id="imagebot_85" offset="1"/>
  </linearGradient>
  <radialGradient gradientUnits="userSpaceOnUse" gradientTransform="matrix(1.133224,-0.395714,0.234279,0.670918,-135.073,312.4473)" r="85.73126" fy="241.98325" fx="588.34186" cy="241.98325" cx="588.34186" id="imagebot_7" xlink:href="#imagebot_84"/>
  <linearGradient y2="0.67671" x2="3.81429" y1="0.5372" x1="-2.04912" id="imagebot_5" xlink:href="#imagebot_83"/>
 </defs>
 <metadata id="imagebot_82">image/svg+xmlkoloZS a MS Machovo nam.(czkolobicycle</metadata>
 <g display="inline" id="imagebot_2" label="Vrstva 1">
  <g display="inline" label="Vrstva 1" transform="translate(0.0730726 1.28518) matrix(0.971725 0 0 0.978291 -3.86295 -70.5622)" id="imagebot_3">
   <path fill="#3d3d3b" stroke-width="4.086" stroke-miterlimit="4" stroke-dashoffset="0" id="imagebot_81" d="M245.92252,517.1731C244.46123,520.20667 248.99136,519.20129 247.46558,522.20294C245.93979,525.20459 244.08223,520.95221 242.49265,523.92059C240.90308,526.88892 245.47203,526.07806 243.81938,529.01178C242.16673,531.94543 240.49257,527.61761 238.7776,530.51532C237.06264,533.41309 241.66208,532.79816 239.88557,535.65857C238.10909,538.51898 236.62138,534.1236 234.78416,536.94537C232.94695,539.76715 237.56845,539.34937 235.67136,542.13123C233.77426,544.91309 232.47572,540.45813 230.51961,543.19885C228.56351,545.93958 233.19864,545.7196 231.1844,548.41791C229.17017,551.11615 228.06319,546.6098 225.99174,549.2644C223.9203,551.91907 228.56062,551.89734 226.43294,554.50708C224.30524,557.11682 223.39182,552.56726 221.20885,555.13098C219.02586,557.69464 223.66286,557.87128 221.4256,560.3877C219.18834,562.90417 218.47015,558.3197 216.17963,560.78778C213.88908,563.25586 218.51431,563.63043 216.17155,566.04901C213.82883,568.46753 213.30717,563.85663 210.91328,566.22455C208.51939,568.59247 213.12437,569.16437 210.68042,571.48059C208.23647,573.79681 207.91232,569.16785 205.41943,571.43134C202.92654,573.69476 207.50288,574.46289 204.9622,576.67261C202.42151,578.88232 202.29547,574.24365 199.70815,576.39856C197.1208,578.55347 201.66016,579.51642 199.02736,581.61554C196.39458,583.71466 196.46684,579.07489 193.78979,581.11725C191.11275,583.15961 195.6068,584.31567 192.88672,586.30035C190.16664,588.28503 190.4371,583.65259 187.67525,585.57874C184.91338,587.50482 189.35391,588.85187 186.55151,590.71851C183.74911,592.58514 184.21727,587.96851 181.37563,589.77484C178.53397,591.58118 182.9129,593.1167 180.03329,594.86194C177.1537,596.60712 177.8187,592.01471 174.90247,593.69794C171.98622,595.38123 176.29555,597.10248 173.34399,598.72302C170.39246,600.34363 171.25308,595.78375 168.26758,597.34088C165.28207,598.89801 169.51392,600.80182 166.49582,602.2948C163.47772,603.78778 164.53241,599.26886 161.48309,600.69696C158.43379,602.12512 162.58041,604.20801 159.50127,605.57068C156.42213,606.93329 157.66896,602.46356 154.56142,603.76013C151.45386,605.05664 155.50769,607.31482 152.37314,608.54468C149.23859,609.77448 150.67526,605.36212 147.51515,606.52472C144.35504,607.68726 148.30867,610.11658 145.12444,611.21136C141.94022,612.30615 143.5641,607.95923 140.35719,608.98566C137.1503,610.01215 140.99652,612.60822 137.76842,613.56592C134.54031,614.52362 136.34846,610.25 133.10063,611.13855C129.85278,612.02704 133.58456,614.78503 130.3185,615.60394C127.05241,616.42285 129.04153,612.23047 125.75869,612.97937C122.47586,613.72827 126.08638,616.64325 122.78829,617.32184C119.49021,618.00043 121.65664,613.89685 118.34481,614.50476C115.03297,615.11273 118.51564,618.17932 115.19157,618.71637C111.8675,619.25342 114.2073,615.24615 110.87251,615.71204C107.53772,616.17792 110.88617,619.3905 107.54219,619.78503C104.19821,620.1795 106.70711,616.27588 103.35546,616.59888C100.00381,616.92181 103.21193,620.27454 99.85414,620.52582C96.49635,620.7771 99.16976,616.98425 95.80737,617.1637C92.44498,617.34314 95.50691,620.8299 92.14146,620.9375C88.776,621.04504 91.60903,617.36987 88.24204,617.40546C84.87506,617.4411 87.7852,621.05548 84.41822,621.01917C81.05125,620.98285 84.03873,617.43207 80.67329,617.32379C77.30786,617.21552 80.06091,620.95099 76.69855,620.77075C73.3362,620.59058 76.47269,617.17078 73.11495,616.91876C69.75722,616.66675 72.34813,620.51648 68.99655,620.19275C65.64497,619.86908 68.92471,616.58636 65.58082,616.1911C62.23692,615.7959 64.66097,619.75275 61.32628,619.28613C57.99159,618.81958 61.40861,615.67999 58.08466,615.14221C54.7607,614.60449 57.01346,618.66132 53.70176,618.05267C50.39005,617.44397 53.9381,614.45331 50.64016,613.77399C47.34222,613.09467 49.41957,617.24408 46.1369,616.49445C42.85423,615.74481 46.52683,612.90851 43.26093,612.08887C39.99503,611.26929 41.89318,615.50366 38.64553,614.61444C35.3979,613.72522 39.18834,611.0484 35.96044,610.09003C32.73254,609.13159 34.44802,613.44324 31.24135,612.41608C28.03467,611.38892 31.93603,608.87646 28.75203,607.78101C25.56803,606.68555 27.09772,611.06653 23.93785,609.90332C20.77799,608.74005 24.78315,606.39661 21.64886,605.16614C18.51458,603.93561 19.85567,608.37793 16.7484,607.08075C13.64113,605.78357 17.74276,603.6134 14.66392,602.25012C11.58508,600.88678 12.73513,605.38239 9.68613,603.95355C6.63712,602.52478 10.82773,600.53186 7.80996,599.03827C4.79219,597.54468 5.74909,602.08527 2.76392,600.52753C-0.22124,598.96973 4.0507,597.15771 1.0995,595.5365C-1.8517,593.91528 -1.08969,598.49268 -4.00557,596.80878C-6.92144,595.12488 -2.57598,593.49701 -5.4552,591.75122C-8.33443,590.00537 -7.76871,594.61115 -10.60997,592.80414C-13.45123,590.99719 -9.04018,589.55652 -11.84217,587.68927C-14.64417,585.82202 -14.27577,590.44775 -17.03722,588.521C-19.79868,586.5943 -15.33009,585.34344 -18.04975,583.35815C-20.7694,581.37286 -20.59899,586.01007 -23.27559,583.96716C-25.9522,581.92419 -21.43424,580.86542 -24.06658,578.76575C-26.69892,576.66608 -26.72681,581.30634 -29.31367,579.15088C-31.90054,576.99542 -27.34147,576.13068 -29.88169,573.92041C-32.4219,571.71014 -32.64804,576.34503 -35.14045,574.08099C-37.63285,571.81696 -33.04099,571.14783 -35.48444,568.83105C-37.92789,566.51428 -38.35188,571.13519 -40.74526,568.76678C-43.13865,566.39832 -38.52239,565.92596 -40.86461,563.5069C-43.20684,561.08783 -43.82788,565.68646 -46.11788,563.2179C-48.40788,560.74933 -43.77565,560.47467 -46.01237,557.95776C-48.24909,555.4408 -49.06607,560.00867 -51.24849,557.44452C-53.43091,554.88037 -48.79119,554.80389 -50.91832,552.19366C-53.04544,549.5835 -54.05686,554.11224 -56.12772,551.45721C-58.19859,548.80212 -53.55983,548.92395 -55.57348,546.22528C-57.58713,543.52655 -58.79114,548.008 -60.74666,545.26685C-62.70218,542.5257 -58.07287,542.84564 -59.96936,540.06335C-61.86586,537.28107 -63.26026,541.70697 -65.09686,538.88477C-66.93347,536.06262 -62.32206,536.58008 -64.09794,533.7193C-65.87382,530.85852 -67.45605,535.22076 -69.17039,532.32269C-70.88474,529.42456 -66.29964,530.13861 -67.95166,527.20459C-69.60368,524.27051 -71.37087,528.56122 -72.95981,525.59253C-74.54874,522.62384 -69.99835,523.53308 -71.52349,520.53113C-73.04862,517.52917 -74.99754,521.74042 -76.45818,518.70654C-77.91882,515.67267 -73.41143,516.77557 -74.8069,513.71118C-76.20237,510.64679 -78.32946,514.77094 -79.65912,511.6774C-80.98878,508.58389 -76.53265,509.87839 -77.7959,506.75717C-79.05916,503.63593 -81.36052,507.66541 -82.55679,504.51788C-83.75305,501.37039 -79.3563,502.85413 -80.48503,499.68176C-81.61376,496.5094 -84.0852,500.43686 -85.14588,497.24112C-86.20656,494.04535 -81.87722,495.71561 -82.86937,492.49792C-83.86151,489.28024 -86.49852,493.09851 -87.42168,489.86035C-88.34483,486.62219 -84.09082,488.47589 -84.94456,485.21875C-85.79832,481.96161 -88.59606,485.6637 -89.38001,482.38907C-90.16396,479.11444 -85.99304,481.14822 -86.70683,477.85757C-87.42062,474.56693 -90.37401,478.14609 -91.01732,474.84094C-91.66062,471.5358 -87.58042,473.74597 -88.15295,470.4278C-88.72548,467.10968 -91.8291,470.55936 -92.3306,467.22974C-92.83208,463.90012 -88.85004,466.28262 -89.28027,462.94305C-89.71049,459.60349 -92.95869,462.91739 -93.31745,459.5694C-93.67621,456.22141 -89.79961,458.77185 -90.08675,455.41693C-90.37388,452.06204 -93.7607,455.23413 -93.97607,451.87387C-94.19145,448.51358 -90.42738,451.22736 -90.57089,447.86325C-90.7144,444.49915 -94.23368,447.52362 -94.30527,444.15723C-94.37687,440.7908 -90.73219,443.66296 -90.73183,440.29578C-90.73146,436.92859 -94.37676,439.79996 -94.30444,436.43356C-94.23212,433.06717 -90.7135,436.09241 -90.56926,432.72833C-90.42502,429.36426 -94.18968,432.07721 -93.97359,428.71698C-93.75748,425.35675 -90.37134,428.5296 -90.08349,425.17474C-89.79563,421.81989 -93.67278,424.36954 -93.3133,421.02161C-92.95382,417.67368 -89.70634,420.98831 -89.27539,417.64883C-88.84445,414.30933 -92.827,416.69095 -92.32479,413.36145C-91.82259,410.03195 -88.7197,413.4823 -88.14646,410.16428C-87.57321,406.84628 -91.65389,409.05554 -91.00987,405.75055C-90.36585,402.44553 -87.41325,406.02533 -86.69875,402.73483C-85.98425,399.44434 -90.1556,401.47723 -89.37095,398.20276C-88.58629,394.92831 -85.78934,398.63098 -84.93489,395.37402C-84.08044,392.11707 -88.33485,393.96988 -87.411,390.73193C-86.48714,387.49396 -83.85096,391.31281 -82.85812,388.09531C-81.86529,384.87784 -86.19498,386.54718 -85.13361,383.35165C-84.07224,380.15613 -81.60165,384.08411 -80.47224,380.91199C-79.34282,377.7399 -83.73989,379.22266 -82.54295,376.07541C-81.34601,372.92816 -79.04551,376.95813 -77.78159,373.83719C-76.51766,370.71622 -80.97408,372.00977 -79.64375,368.91653C-78.31342,365.8233 -76.18722,369.94788 -74.79108,366.88379C-73.39496,363.8197 -77.90258,364.92163 -76.44128,361.88809C-74.98,358.85452 -73.03199,363.06619 -71.5062,360.06454C-69.98042,357.0629 -74.53101,357.97122 -72.94144,355.00287C-71.35185,352.03452 -69.58559,356.32559 -67.93294,353.39188C-66.28029,350.45819 -70.86553,351.17123 -69.15057,348.27353C-67.43561,345.37579 -65.85431,349.7384 -64.07781,346.87802C-62.30132,344.01761 -66.91284,344.53406 -65.07563,341.71228C-63.23841,338.8905 -61.84497,343.31668 -59.94787,340.53479C-58.05078,337.75293 -62.68016,338.07187 -60.72404,335.33115C-58.76794,332.59045 -57.5649,337.07214 -55.55066,334.37387C-53.53643,331.67557 -58.17521,331.79642 -56.10378,329.14182C-54.03234,326.48718 -53.0219,331.0162 -50.89421,328.40646C-48.76652,325.79669 -53.40623,325.71921 -51.22326,323.15555C-49.04028,320.59186 -48.22429,325.15991 -45.98703,322.64346C-43.74977,320.12698 -48.38193,319.85135 -46.0914,317.38327C-43.80088,314.91522 -43.18082,319.51395 -40.83807,317.0954C-38.49533,314.67685 -43.11148,314.20349 -40.71759,311.83557C-38.32369,309.46762 -37.9007,314.08865 -35.45676,311.77243C-33.01281,309.45618 -37.60452,308.78604 -35.11163,306.52255C-32.61874,304.25906 -32.39359,308.89395 -29.8529,306.68427C-27.31221,304.47455 -31.87109,303.6088 -29.28376,301.45392C-26.69643,299.29901 -26.66954,303.9393 -24.03675,301.84018C-21.40396,299.74106 -25.92169,298.6813 -23.24464,296.63895C-20.5676,294.59656 -20.73901,299.23376 -18.01893,297.24905C-15.29885,295.26437 -19.76716,294.01254 -17.00529,292.0864C-14.24342,290.16028 -14.61282,294.78592 -11.81042,292.91928C-9.00802,291.05261 -13.41877,289.61099 -10.57712,287.80466C-7.73547,285.99832 -8.30218,290.60391 -5.42258,288.85873C-2.54297,287.11349 -6.88809,285.48474 -3.97185,283.80148C-1.05561,282.11819 -1.8186,286.6954 1.13294,285.07483C4.08448,283.45425 -0.18707,281.64133 2.79844,280.0842C5.78394,278.52707 4.82606,283.06747 7.84415,281.57452C10.86225,280.08154 6.67207,278.08774 9.72138,276.65961C12.77069,275.23148 11.61967,279.72681 14.69881,278.36417C17.77794,277.00153 13.67678,274.83047 16.78433,273.53394C19.89188,272.23743 18.54983,276.67947 21.68438,275.44965C24.81892,274.21982 20.81428,271.87552 23.97439,270.71295C27.1345,269.55038 25.60387,273.93103 28.7881,272.83627C31.97234,271.74149 28.07152,269.22824 31.27842,268.20175C34.48532,267.17529 32.76891,271.48654 35.99701,270.52884C39.22512,269.57111 35.43525,266.89346 38.68309,266.00497C41.93092,265.11646 40.03185,269.35043 43.29793,268.53152C46.56401,267.71262 42.89202,264.87549 46.17485,264.12656C49.45769,263.37766 47.37944,267.52661 50.67752,266.84802C53.97561,266.16943 50.42821,263.17798 53.74004,262.57001C57.05188,261.96207 54.79824,266.01843 58.12232,265.48138C61.44639,264.94434 58.03005,261.80402 61.36484,261.33813C64.69962,260.87225 62.27472,264.82861 65.61871,264.43411C68.96268,264.03958 65.68365,260.75616 69.0353,260.4332C72.38696,260.11023 69.79521,263.95935 73.15299,263.7081C76.51078,263.45682 73.37505,260.03629 76.73743,259.85684C80.09982,259.6774 77.34597,263.41226 80.71143,263.30469C84.07688,263.19714 81.09016,259.64572 84.45715,259.61011C87.82413,259.57449 84.91322,263.18829 88.28019,263.22464C91.64717,263.26096 88.81493,259.58521 92.18037,259.69348C95.5458,259.80176 92.48312,263.28787 95.84547,263.46805C99.20782,263.64822 96.53523,259.8548 99.89296,260.10678C103.25069,260.35876 100.04185,263.71082 103.39343,264.03448C106.74501,264.35818 104.23696,260.45401 107.58085,260.84924C110.92475,261.24448 107.57561,264.45636 110.9103,264.92297C114.24498,265.38956 111.90604,261.38181 115.23,261.91956C118.55395,262.45731 115.07063,265.52316 118.38233,266.13181C121.69403,266.74048 119.52848,262.63644 122.82642,263.31573C126.12436,263.99503 122.51322,266.90921 125.79589,267.65884C129.07857,268.40845 127.09035,264.21561 130.35625,265.03522C133.62216,265.8548 129.88979,268.61203 133.13742,269.50125C136.38507,270.39044 134.57784,266.11649 137.80573,267.07489C141.03363,268.03329 137.18684,270.62851 140.39352,271.65567C143.6002,272.68283 141.97725,268.33554 145.16125,269.431C148.34525,270.52646 144.39108,272.95493 147.55095,274.11816C150.71082,275.28143 149.2751,270.86874 152.40938,272.09927C155.54366,273.32977 151.48933,275.58707 154.5966,276.88428C157.70387,278.18146 156.45802,273.71149 159.53687,275.0748C162.61571,276.43811 158.46864,278.52011 161.51765,279.94891C164.56665,281.37769 163.51292,276.85855 166.53072,278.35217C169.54848,279.84579 165.31624,281.74869 168.30141,283.30646C171.28658,284.86423 170.42693,280.3042 173.37811,281.92542C176.32932,283.5466 172.01962,285.26691 174.9355,286.95081C177.85138,288.63474 177.18736,284.04211 180.06659,285.78796C182.94582,287.53378 178.56656,289.06836 181.40782,290.87534C184.24908,292.68228 183.78191,288.06552 186.58391,289.93277C189.38591,291.80002 184.94507,293.14609 187.70653,295.07281C190.46799,296.99954 190.19852,292.367 192.91817,294.35229C195.63782,296.33755 191.14352,297.49265 193.82013,299.53561C196.49673,301.57855 196.42546,296.93875 199.05779,299.03842C201.69012,301.13812 197.15057,302.1001 199.73746,304.25555C202.32433,306.41101 202.45135,301.7724 204.99158,303.98264C207.53178,306.19287 202.95528,306.96002 205.44768,309.22403C207.94009,311.48807 208.26521,306.8591 210.70866,309.17587C213.15211,311.49265 208.54703,312.06354 210.9404,314.43198C213.33379,316.80045 213.85641,312.18961 216.19864,314.60867C218.54086,317.02774 213.91557,317.40131 216.20557,319.86987C218.49556,322.33844 219.21474,317.75415 221.45146,320.27109C223.68819,322.78802 219.05115,322.96362 221.23357,325.52777C223.41599,328.09192 224.3304,323.54257 226.45752,326.15277C228.58466,328.76297 223.94435,328.7403 226.01521,331.39536C228.08607,334.05042 229.19405,329.54428 231.20769,332.24301C233.22134,334.94171 228.58624,334.72076 230.54176,337.46188C232.49728,340.20303 233.79678,335.74835 235.69328,338.53064C237.58978,341.31293 232.96837,340.89413 234.80498,343.71631C236.64159,346.53851 238.13023,342.1434 239.90611,345.00421C241.68201,347.86499 237.0827,347.24911 238.79703,350.14719C240.51137,353.04526 242.18646,348.7178 243.83849,351.65186C245.49049,354.58591 240.92172,353.77405 242.51067,356.74277C244.09959,359.71146 245.95808,355.45953 247.48322,358.46149C249.00835,361.46347 244.47842,360.45712 245.93906,363.491C247.3997,366.52487 249.43817,362.35623 250.83363,365.42062C252.2291,368.48502 247.74632,367.28604 249.07599,370.37955C250.40565,373.47308 252.62038,369.39536 253.88364,372.51657C255.1469,375.63779 250.71944,374.24835 251.9157,377.39587C253.11195,380.54337 255.49892,376.564 256.62766,379.73636C257.75638,382.90872 253.39233,381.33136 254.453,384.52713C255.51369,387.72287 258.06848,383.84912 259.06064,387.06683C260.0528,390.28448 255.76013,388.52213 256.68329,391.76028C257.60645,394.99841 260.32443,391.2374 261.17819,394.49454C262.03195,397.75168 257.81851,395.80746 258.60245,399.08212C259.38641,402.35675 262.26263,398.7153 262.97641,402.00595C263.69022,405.2966 259.56372,403.17413 260.20703,406.47928C260.85031,409.78442 263.87952,406.2692 264.45206,409.58734C265.02457,412.90549 260.99255,410.60864 261.49402,413.93826C261.99551,417.26788 265.17215,413.88528 265.60239,417.22485C266.03259,420.56442 262.10239,418.09738 262.46115,421.4454C262.81992,424.7934 266.13818,421.54965 266.42532,424.90454C266.71243,428.25946 262.89124,425.62674 263.1066,428.98703C263.32199,432.34729 266.77582,429.24829 266.91934,432.6124C267.06284,435.9765 263.3576,433.18292 263.42923,436.54932C263.50082,439.91574 267.08392,436.96713 267.08356,440.33432C267.08319,443.70148 263.50073,440.75211 263.42841,444.11853C263.35608,447.48492 267.06192,444.69211 266.91766,448.05621C266.77344,451.42029 263.32025,448.32053 263.10416,451.68076C262.88806,455.04099 266.70984,452.40909 266.42197,455.76395C266.13412,459.11877 262.81656,455.8743 262.45709,459.22223C262.0976,462.57016 266.02835,460.10397 265.59741,463.44345C265.16647,466.78293 261.99054,463.39966 261.48834,466.72919C260.98615,470.05869 265.01868,467.7627 264.44543,471.08072C263.87219,474.39874 260.84375,470.88287 260.19971,474.18787C259.55569,477.49289 263.68268,475.37131 262.96817,478.6618C262.25366,481.9523 259.37823,478.31021 258.59357,481.58469C257.80893,484.85916 262.02277,482.91586 261.16833,486.17282C260.31387,489.42978 257.59668,485.66815 256.67282,488.90613C255.74896,492.14407 260.04199,490.3826 259.04916,493.6001C258.05634,496.81757 255.50237,492.94327 254.44099,496.13879C253.37962,499.33432 257.74399,497.7579 256.61459,500.93002C255.48517,504.10211 253.09908,500.12225 251.90215,503.2695C250.7052,506.41675 255.13295,505.02826 253.86902,508.1492C252.6051,511.27017 250.39125,507.19196 249.06091,510.28519C247.73058,513.37842 252.21362,512.18042 250.8175,515.24451C249.42137,518.30859 247.3838,514.13953 245.92252,517.1731z" transform="matrix(1.090651,0,0,1.071418,765.9927,43.00941)"/>
   <path fill="white" stroke="black" stroke-width="17.04854" stroke-miterlimit="4" stroke-dashoffset="0" id="imagebot_80" d="M388.57144,517.66589A188.57143,190.71428 0 1 1 11.42857,517.66589A188.57143,190.71428 0 1 1 388.57144,517.66589z" transform="matrix(0.849793,0,0,0.827786,687.2758,85.75785)"/>
   <path fill="#28282a" fill-rule="evenodd" stroke="black" stroke-width="1px" d="M330.8306,497.53421L326.86713,493.55576C326.86713,493.55576 326.37354,492.0657 326.3782,489.58386C326.38287,487.10202 328.87314,482.63934 328.87314,482.63934L333.84247,479.67044L418.21527,485.28931L447.49463,488.819L451.95636,491.80563L453.92969,498.26221L452.92575,504.21677L449.93726,509.67126L444.4697,513.63196L439.50504,514.11902L433.54953,513.61139L341.74237,502.02209L335.29233,500.52084L330.8306,497.53421z" id="imagebot_79"/>
   <path fill="#3d3d3b" stroke-width="4.086" stroke-miterlimit="4" stroke-dashoffset="0" id="imagebot_78" d="M245.92252,517.1731C244.46123,520.20667 248.99136,519.20129 247.46558,522.20294C245.93979,525.20459 244.08223,520.95221 242.49265,523.92059C240.90308,526.88892 245.47203,526.07806 243.81938,529.01178C242.16673,531.94543 240.49257,527.61761 238.7776,530.51532C237.06264,533.41309 241.66208,532.79816 239.88557,535.65857C238.10909,538.51898 236.62138,534.1236 234.78416,536.94537C232.94695,539.76715 237.56845,539.34937 235.67136,542.13123C233.77426,544.91309 232.47572,540.45813 230.51961,543.19885C228.56351,545.93958 233.19864,545.7196 231.1844,548.41791C229.17017,551.11615 228.06319,546.6098 225.99174,549.2644C223.9203,551.91907 228.56062,551.89734 226.43294,554.50708C224.30524,557.11682 223.39182,552.56726 221.20885,555.13098C219.02586,557.69464 223.66286,557.87128 221.4256,560.3877C219.18834,562.90417 218.47015,558.3197 216.17963,560.78778C213.88908,563.25586 218.51431,563.63043 216.17155,566.04901C213.82883,568.46753 213.30717,563.85663 210.91328,566.22455C208.51939,568.59247 213.12437,569.16437 210.68042,571.48059C208.23647,573.79681 207.91232,569.16785 205.41943,571.43134C202.92654,573.69476 207.50288,574.46289 204.9622,576.67261C202.42151,578.88232 202.29547,574.24365 199.70815,576.39856C197.1208,578.55347 201.66016,579.51642 199.02736,581.61554C196.39458,583.71466 196.46684,579.07489 193.78979,581.11725C191.11275,583.15961 195.6068,584.31567 192.88672,586.30035C190.16664,588.28503 190.4371,583.65259 187.67525,585.57874C184.91338,587.50482 189.35391,588.85187 186.55151,590.71851C183.74911,592.58514 184.21727,587.96851 181.37563,589.77484C178.53397,591.58118 182.9129,593.1167 180.03329,594.86194C177.1537,596.60712 177.8187,592.01471 174.90247,593.69794C171.98622,595.38123 176.29555,597.10248 173.34399,598.72302C170.39246,600.34363 171.25308,595.78375 168.26758,597.34088C165.28207,598.89801 169.51392,600.80182 166.49582,602.2948C163.47772,603.78778 164.53241,599.26886 161.48309,600.69696C158.43379,602.12512 162.58041,604.20801 159.50127,605.57068C156.42213,606.93329 157.66896,602.46356 154.56142,603.76013C151.45386,605.05664 155.50769,607.31482 152.37314,608.54468C149.23859,609.77448 150.67526,605.36212 147.51515,606.52472C144.35504,607.68726 148.30867,610.11658 145.12444,611.21136C141.94022,612.30615 143.5641,607.95923 140.35719,608.98566C137.1503,610.01215 140.99652,612.60822 137.76842,613.56592C134.54031,614.52362 136.34846,610.25 133.10063,611.13855C129.85278,612.02704 133.58456,614.78503 130.3185,615.60394C127.05241,616.42285 129.04153,612.23047 125.75869,612.97937C122.47586,613.72827 126.08638,616.64325 122.78829,617.32184C119.49021,618.00043 121.65664,613.89685 118.34481,614.50476C115.03297,615.11273 118.51564,618.17932 115.19157,618.71637C111.8675,619.25342 114.2073,615.24615 110.87251,615.71204C107.53772,616.17792 110.88617,619.3905 107.54219,619.78503C104.19821,620.1795 106.70711,616.27588 103.35546,616.59888C100.00381,616.92181 103.21193,620.27454 99.85414,620.52582C96.49635,620.7771 99.16976,616.98425 95.80737,617.1637C92.44498,617.34314 95.50691,620.8299 92.14146,620.9375C88.776,621.04504 91.60903,617.36987 88.24204,617.40546C84.87506,617.4411 87.7852,621.05548 84.41822,621.01917C81.05125,620.98285 84.03873,617.43207 80.67329,617.32379C77.30786,617.21552 80.06091,620.95099 76.69855,620.77075C73.3362,620.59058 76.47269,617.17078 73.11495,616.91876C69.75722,616.66675 72.34813,620.51648 68.99655,620.19275C65.64497,619.86908 68.92471,616.58636 65.58082,616.1911C62.23692,615.7959 64.66097,619.75275 61.32628,619.28613C57.99159,618.81958 61.40861,615.67999 58.08466,615.14221C54.7607,614.60449 57.01346,618.66132 53.70176,618.05267C50.39005,617.44397 53.9381,614.45331 50.64016,613.77399C47.34222,613.09467 49.41957,617.24408 46.1369,616.49445C42.85423,615.74481 46.52683,612.90851 43.26093,612.08887C39.99503,611.26929 41.89318,615.50366 38.64553,614.61444C35.3979,613.72522 39.18834,611.0484 35.96044,610.09003C32.73254,609.13159 34.44802,613.44324 31.24135,612.41608C28.03467,611.38892 31.93603,608.87646 28.75203,607.78101C25.56803,606.68555 27.09772,611.06653 23.93785,609.90332C20.77799,608.74005 24.78315,606.39661 21.64886,605.16614C18.51458,603.93561 19.85567,608.37793 16.7484,607.08075C13.64113,605.78357 17.74276,603.6134 14.66392,602.25012C11.58508,600.88678 12.73513,605.38239 9.68613,603.95355C6.63712,602.52478 10.82773,600.53186 7.80996,599.03827C4.79219,597.54468 5.74909,602.08527 2.76392,600.52753C-0.22124,598.96973 4.0507,597.15771 1.0995,595.5365C-1.8517,593.91528 -1.08969,598.49268 -4.00557,596.80878C-6.92144,595.12488 -2.57598,593.49701 -5.4552,591.75122C-8.33443,590.00537 -7.76871,594.61115 -10.60997,592.80414C-13.45123,590.99719 -9.04018,589.55652 -11.84217,587.68927C-14.64417,585.82202 -14.27577,590.44775 -17.03722,588.521C-19.79868,586.5943 -15.33009,585.34344 -18.04975,583.35815C-20.7694,581.37286 -20.59899,586.01007 -23.27559,583.96716C-25.9522,581.92419 -21.43424,580.86542 -24.06658,578.76575C-26.69892,576.66608 -26.72681,581.30634 -29.31367,579.15088C-31.90054,576.99542 -27.34147,576.13068 -29.88169,573.92041C-32.4219,571.71014 -32.64804,576.34503 -35.14045,574.08099C-37.63285,571.81696 -33.04099,571.14783 -35.48444,568.83105C-37.92789,566.51428 -38.35188,571.13519 -40.74526,568.76678C-43.13865,566.39832 -38.52239,565.92596 -40.86461,563.5069C-43.20684,561.08783 -43.82788,565.68646 -46.11788,563.2179C-48.40788,560.74933 -43.77565,560.47467 -46.01237,557.95776C-48.24909,555.4408 -49.06607,560.00867 -51.24849,557.44452C-53.43091,554.88037 -48.79119,554.80389 -50.91832,552.19366C-53.04544,549.5835 -54.05686,554.11224 -56.12772,551.45721C-58.19859,548.80212 -53.55983,548.92395 -55.57348,546.22528C-57.58713,543.52655 -58.79114,548.008 -60.74666,545.26685C-62.70218,542.5257 -58.07287,542.84564 -59.96936,540.06335C-61.86586,537.28107 -63.26026,541.70697 -65.09686,538.88477C-66.93347,536.06262 -62.32206,536.58008 -64.09794,533.7193C-65.87382,530.85852 -67.45605,535.22076 -69.17039,532.32269C-70.88474,529.42456 -66.29964,530.13861 -67.95166,527.20459C-69.60368,524.27051 -71.37087,528.56122 -72.95981,525.59253C-74.54874,522.62384 -69.99835,523.53308 -71.52349,520.53113C-73.04862,517.52917 -74.99754,521.74042 -76.45818,518.70654C-77.91882,515.67267 -73.41143,516.77557 -74.8069,513.71118C-76.20237,510.64679 -78.32946,514.77094 -79.65912,511.6774C-80.98878,508.58389 -76.53265,509.87839 -77.7959,506.75717C-79.05916,503.63593 -81.36052,507.66541 -82.55679,504.51788C-83.75305,501.37039 -79.3563,502.85413 -80.48503,499.68176C-81.61376,496.5094 -84.0852,500.43686 -85.14588,497.24112C-86.20656,494.04535 -81.87722,495.71561 -82.86937,492.49792C-83.86151,489.28024 -86.49852,493.09851 -87.42168,489.86035C-88.34483,486.62219 -84.09082,488.47589 -84.94456,485.21875C-85.79832,481.96161 -88.59606,485.6637 -89.38001,482.38907C-90.16396,479.11444 -85.99304,481.14822 -86.70683,477.85757C-87.42062,474.56693 -90.37401,478.14609 -91.01732,474.84094C-91.66062,471.5358 -87.58042,473.74597 -88.15295,470.4278C-88.72548,467.10968 -91.8291,470.55936 -92.3306,467.22974C-92.83208,463.90012 -88.85004,466.28262 -89.28027,462.94305C-89.71049,459.60349 -92.95869,462.91739 -93.31745,459.5694C-93.67621,456.22141 -89.79961,458.77185 -90.08675,455.41693C-90.37388,452.06204 -93.7607,455.23413 -93.97607,451.87387C-94.19145,448.51358 -90.42738,451.22736 -90.57089,447.86325C-90.7144,444.49915 -94.23368,447.52362 -94.30527,444.15723C-94.37687,440.7908 -90.73219,443.66296 -90.73183,440.29578C-90.73146,436.92859 -94.37676,439.79996 -94.30444,436.43356C-94.23212,433.06717 -90.7135,436.09241 -90.56926,432.72833C-90.42502,429.36426 -94.18968,432.07721 -93.97359,428.71698C-93.75748,425.35675 -90.37134,428.5296 -90.08349,425.17474C-89.79563,421.81989 -93.67278,424.36954 -93.3133,421.02161C-92.95382,417.67368 -89.70634,420.98831 -89.27539,417.64883C-88.84445,414.30933 -92.827,416.69095 -92.32479,413.36145C-91.82259,410.03195 -88.7197,413.4823 -88.14646,410.16428C-87.57321,406.84628 -91.65389,409.05554 -91.00987,405.75055C-90.36585,402.44553 -87.41325,406.02533 -86.69875,402.73483C-85.98425,399.44434 -90.1556,401.47723 -89.37095,398.20276C-88.58629,394.92831 -85.78934,398.63098 -84.93489,395.37402C-84.08044,392.11707 -88.33485,393.96988 -87.411,390.73193C-86.48714,387.49396 -83.85096,391.31281 -82.85812,388.09531C-81.86529,384.87784 -86.19498,386.54718 -85.13361,383.35165C-84.07224,380.15613 -81.60165,384.08411 -80.47224,380.91199C-79.34282,377.7399 -83.73989,379.22266 -82.54295,376.07541C-81.34601,372.92816 -79.04551,376.95813 -77.78159,373.83719C-76.51766,370.71622 -80.97408,372.00977 -79.64375,368.91653C-78.31342,365.8233 -76.18722,369.94788 -74.79108,366.88379C-73.39496,363.8197 -77.90258,364.92163 -76.44128,361.88809C-74.98,358.85452 -73.03199,363.06619 -71.5062,360.06454C-69.98042,357.0629 -74.53101,357.97122 -72.94144,355.00287C-71.35185,352.03452 -69.58559,356.32559 -67.93294,353.39188C-66.28029,350.45819 -70.86553,351.17123 -69.15057,348.27353C-67.43561,345.37579 -65.85431,349.7384 -64.07781,346.87802C-62.30132,344.01761 -66.91284,344.53406 -65.07563,341.71228C-63.23841,338.8905 -61.84497,343.31668 -59.94787,340.53479C-58.05078,337.75293 -62.68016,338.07187 -60.72404,335.33115C-58.76794,332.59045 -57.5649,337.07214 -55.55066,334.37387C-53.53643,331.67557 -58.17521,331.79642 -56.10378,329.14182C-54.03234,326.48718 -53.0219,331.0162 -50.89421,328.40646C-48.76652,325.79669 -53.40623,325.71921 -51.22326,323.15555C-49.04028,320.59186 -48.22429,325.15991 -45.98703,322.64346C-43.74977,320.12698 -48.38193,319.85135 -46.0914,317.38327C-43.80088,314.91522 -43.18082,319.51395 -40.83807,317.0954C-38.49533,314.67685 -43.11148,314.20349 -40.71759,311.83557C-38.32369,309.46762 -37.9007,314.08865 -35.45676,311.77243C-33.01281,309.45618 -37.60452,308.78604 -35.11163,306.52255C-32.61874,304.25906 -32.39359,308.89395 -29.8529,306.68427C-27.31221,304.47455 -31.87109,303.6088 -29.28376,301.45392C-26.69643,299.29901 -26.66954,303.9393 -24.03675,301.84018C-21.40396,299.74106 -25.92169,298.6813 -23.24464,296.63895C-20.5676,294.59656 -20.73901,299.23376 -18.01893,297.24905C-15.29885,295.26437 -19.76716,294.01254 -17.00529,292.0864C-14.24342,290.16028 -14.61282,294.78592 -11.81042,292.91928C-9.00802,291.05261 -13.41877,289.61099 -10.57712,287.80466C-7.73547,285.99832 -8.30218,290.60391 -5.42258,288.85873C-2.54297,287.11349 -6.88809,285.48474 -3.97185,283.80148C-1.05561,282.11819 -1.8186,286.6954 1.13294,285.07483C4.08448,283.45425 -0.18707,281.64133 2.79844,280.0842C5.78394,278.52707 4.82606,283.06747 7.84415,281.57452C10.86225,280.08154 6.67207,278.08774 9.72138,276.65961C12.77069,275.23148 11.61967,279.72681 14.69881,278.36417C17.77794,277.00153 13.67678,274.83047 16.78433,273.53394C19.89188,272.23743 18.54983,276.67947 21.68438,275.44965C24.81892,274.21982 20.81428,271.87552 23.97439,270.71295C27.1345,269.55038 25.60387,273.93103 28.7881,272.83627C31.97234,271.74149 28.07152,269.22824 31.27842,268.20175C34.48532,267.17529 32.76891,271.48654 35.99701,270.52884C39.22512,269.57111 35.43525,266.89346 38.68309,266.00497C41.93092,265.11646 40.03185,269.35043 43.29793,268.53152C46.56401,267.71262 42.89202,264.87549 46.17485,264.12656C49.45769,263.37766 47.37944,267.52661 50.67752,266.84802C53.97561,266.16943 50.42821,263.17798 53.74004,262.57001C57.05188,261.96207 54.79824,266.01843 58.12232,265.48138C61.44639,264.94434 58.03005,261.80402 61.36484,261.33813C64.69962,260.87225 62.27472,264.82861 65.61871,264.43411C68.96268,264.03958 65.68365,260.75616 69.0353,260.4332C72.38696,260.11023 69.79521,263.95935 73.15299,263.7081C76.51078,263.45682 73.37505,260.03629 76.73743,259.85684C80.09982,259.6774 77.34597,263.41226 80.71143,263.30469C84.07688,263.19714 81.09016,259.64572 84.45715,259.61011C87.82413,259.57449 84.91322,263.18829 88.28019,263.22464C91.64717,263.26096 88.81493,259.58521 92.18037,259.69348C95.5458,259.80176 92.48312,263.28787 95.84547,263.46805C99.20782,263.64822 96.53523,259.8548 99.89296,260.10678C103.25069,260.35876 100.04185,263.71082 103.39343,264.03448C106.74501,264.35818 104.23696,260.45401 107.58085,260.84924C110.92475,261.24448 107.57561,264.45636 110.9103,264.92297C114.24498,265.38956 111.90604,261.38181 115.23,261.91956C118.55395,262.45731 115.07063,265.52316 118.38233,266.13181C121.69403,266.74048 119.52848,262.63644 122.82642,263.31573C126.12436,263.99503 122.51322,266.90921 125.79589,267.65884C129.07857,268.40845 127.09035,264.21561 130.35625,265.03522C133.62216,265.8548 129.88979,268.61203 133.13742,269.50125C136.38507,270.39044 134.57784,266.11649 137.80573,267.07489C141.03363,268.03329 137.18684,270.62851 140.39352,271.65567C143.6002,272.68283 141.97725,268.33554 145.16125,269.431C148.34525,270.52646 144.39108,272.95493 147.55095,274.11816C150.71082,275.28143 149.2751,270.86874 152.40938,272.09927C155.54366,273.32977 151.48933,275.58707 154.5966,276.88428C157.70387,278.18146 156.45802,273.71149 159.53687,275.0748C162.61571,276.43811 158.46864,278.52011 161.51765,279.94891C164.56665,281.37769 163.51292,276.85855 166.53072,278.35217C169.54848,279.84579 165.31624,281.74869 168.30141,283.30646C171.28658,284.86423 170.42693,280.3042 173.37811,281.92542C176.32932,283.5466 172.01962,285.26691 174.9355,286.95081C177.85138,288.63474 177.18736,284.04211 180.06659,285.78796C182.94582,287.53378 178.56656,289.06836 181.40782,290.87534C184.24908,292.68228 183.78191,288.06552 186.58391,289.93277C189.38591,291.80002 184.94507,293.14609 187.70653,295.07281C190.46799,296.99954 190.19852,292.367 192.91817,294.35229C195.63782,296.33755 191.14352,297.49265 193.82013,299.53561C196.49673,301.57855 196.42546,296.93875 199.05779,299.03842C201.69012,301.13812 197.15057,302.1001 199.73746,304.25555C202.32433,306.41101 202.45135,301.7724 204.99158,303.98264C207.53178,306.19287 202.95528,306.96002 205.44768,309.22403C207.94009,311.48807 208.26521,306.8591 210.70866,309.17587C213.15211,311.49265 208.54703,312.06354 210.9404,314.43198C213.33379,316.80045 213.85641,312.18961 216.19864,314.60867C218.54086,317.02774 213.91557,317.40131 216.20557,319.86987C218.49556,322.33844 219.21474,317.75415 221.45146,320.27109C223.68819,322.78802 219.05115,322.96362 221.23357,325.52777C223.41599,328.09192 224.3304,323.54257 226.45752,326.15277C228.58466,328.76297 223.94435,328.7403 226.01521,331.39536C228.08607,334.05042 229.19405,329.54428 231.20769,332.24301C233.22134,334.94171 228.58624,334.72076 230.54176,337.46188C232.49728,340.20303 233.79678,335.74835 235.69328,338.53064C237.58978,341.31293 232.96837,340.89413 234.80498,343.71631C236.64159,346.53851 238.13023,342.1434 239.90611,345.00421C241.68201,347.86499 237.0827,347.24911 238.79703,350.14719C240.51137,353.04526 242.18646,348.7178 243.83849,351.65186C245.49049,354.58591 240.92172,353.77405 242.51067,356.74277C244.09959,359.71146 245.95808,355.45953 247.48322,358.46149C249.00835,361.46347 244.47842,360.45712 245.93906,363.491C247.3997,366.52487 249.43817,362.35623 250.83363,365.42062C252.2291,368.48502 247.74632,367.28604 249.07599,370.37955C250.40565,373.47308 252.62038,369.39536 253.88364,372.51657C255.1469,375.63779 250.71944,374.24835 251.9157,377.39587C253.11195,380.54337 255.49892,376.564 256.62766,379.73636C257.75638,382.90872 253.39233,381.33136 254.453,384.52713C255.51369,387.72287 258.06848,383.84912 259.06064,387.06683C260.0528,390.28448 255.76013,388.52213 256.68329,391.76028C257.60645,394.99841 260.32443,391.2374 261.17819,394.49454C262.03195,397.75168 257.81851,395.80746 258.60245,399.08212C259.38641,402.35675 262.26263,398.7153 262.97641,402.00595C263.69022,405.2966 259.56372,403.17413 260.20703,406.47928C260.85031,409.78442 263.87952,406.2692 264.45206,409.58734C265.02457,412.90549 260.99255,410.60864 261.49402,413.93826C261.99551,417.26788 265.17215,413.88528 265.60239,417.22485C266.03259,420.56442 262.10239,418.09738 262.46115,421.4454C262.81992,424.7934 266.13818,421.54965 266.42532,424.90454C266.71243,428.25946 262.89124,425.62674 263.1066,428.98703C263.32199,432.34729 266.77582,429.24829 266.91934,432.6124C267.06284,435.9765 263.3576,433.18292 263.42923,436.54932C263.50082,439.91574 267.08392,436.96713 267.08356,440.33432C267.08319,443.70148 263.50073,440.75211 263.42841,444.11853C263.35608,447.48492 267.06192,444.69211 266.91766,448.05621C266.77344,451.42029 263.32025,448.32053 263.10416,451.68076C262.88806,455.04099 266.70984,452.40909 266.42197,455.76395C266.13412,459.11877 262.81656,455.8743 262.45709,459.22223C262.0976,462.57016 266.02835,460.10397 265.59741,463.44345C265.16647,466.78293 261.99054,463.39966 261.48834,466.72919C260.98615,470.05869 265.01868,467.7627 264.44543,471.08072C263.87219,474.39874 260.84375,470.88287 260.19971,474.18787C259.55569,477.49289 263.68268,475.37131 262.96817,478.6618C262.25366,481.9523 259.37823,478.31021 258.59357,481.58469C257.80893,484.85916 262.02277,482.91586 261.16833,486.17282C260.31387,489.42978 257.59668,485.66815 256.67282,488.90613C255.74896,492.14407 260.04199,490.3826 259.04916,493.6001C258.05634,496.81757 255.50237,492.94327 254.44099,496.13879C253.37962,499.33432 257.74399,497.7579 256.61459,500.93002C255.48517,504.10211 253.09908,500.12225 251.90215,503.2695C250.7052,506.41675 255.13295,505.02826 253.86902,508.1492C252.6051,511.27017 250.39125,507.19196 249.06091,510.28519C247.73058,513.37842 252.21362,512.18042 250.8175,515.24451C249.42137,518.30859 247.3838,514.13953 245.92252,517.1731z" transform="matrix(1.065928,0,0,1.060431,104.4991,53.80357)"/>
   <path fill="#2e3233" fill-rule="evenodd" stroke="black" stroke-width="1px" d="M652.83759,167.07027L649.32776,159.34854C649.32776,159.34854 646.51984,164.26237 645.11591,161.45445C643.71191,158.64656 643.00995,156.54063 643.00995,156.54063L645.11591,153.03075L643.71191,145.30902L638.7981,146.71297L635.28821,141.09715L640.20203,137.58728L637.39417,129.86555L633.88428,131.97147L629.67242,127.05764L635.28821,122.14381L650.73169,112.31615L673.19489,104.59441L680.21466,107.40232L687.23444,125.65369L680.91663,134.77937L667.5791,140.39519L676.00281,157.94458L652.83759,167.07027z" id="imagebot_77"/>
   <path fill="none" fill-opacity="0.75" fill-rule="evenodd" stroke="black" stroke-width="1px" d="M671.79095,105.64738C681.79413,132.84894 682.14508,133.02444 682.14508,133.02444" id="imagebot_76"/>
   <rect fill="#5b5653" stroke-width="4.086" stroke-miterlimit="4" stroke-dashoffset="0" id="imagebot_75" width="18.60236" height="35.09878" x="568.0827" y="334.43634" rx="8.54515" ry="7.98309" transform="matrix(0.926476,-0.376353,0.376353,0.926476,0,0)"/>
   <path fill="#30312c" stroke-width="4.086" stroke-miterlimit="4" stroke-dashoffset="0" id="imagebot_74" d="M676.35382,89.85292A15.44347,15.44347 0 1 1 645.46686,89.85292A15.44347,15.44347 0 1 1 676.35382,89.85292z"/>
   <path fill="#dadade" fill-rule="evenodd" stroke="black" stroke-width="1px" d="M676.70477,155.83865L706.18781,211.99673L683.72455,233.05602L679.5127,227.4402L477.34363,475.93967L478.74759,488.57526L473.13177,506.82663L466.11203,525.078L453.47644,533.50171L435.22507,534.90564L421.18555,526.48193L411.35788,515.25031L409.95395,496.99896L412.76184,484.3634L418.37766,475.93967L429.60928,470.32388L428.20532,459.09225L423.99347,445.05273L428.20532,433.82111L439.43692,428.20532L436.62903,408.54999L429.60928,360.81564L422.58951,324.31287L397.31836,325.71683L404.33813,313.08127L366.43143,261.13504L387.49072,252.71133L464.70807,256.92319L540.52148,247.09554L648.62573,168.47421L645.81787,164.26237L676.70477,155.83865z" id="imagebot_73"/>
   <path fill="white" fill-rule="evenodd" stroke="black" stroke-width="1px" d="M446.73474,295.37424L471.55334,288.42505L520.19781,278.49759L561.89301,277.50485L581.74792,279.49036L479.4953,420.45999L459.64041,408.54706L446.73474,295.37424z" id="imagebot_72"/>
   <path fill="#292d2e" fill-rule="evenodd" stroke="black" stroke-width="1px" d="M543.52728,311.25815L540.05267,313.74002L540.54901,317.711L535.58533,321.68195L534.09619,320.19284L486.94086,355.43524L482.47351,354.4425L455.73999,371.59958L455.73999,370.41159L476.02069,351.46429L475.02795,346.00418L524.66516,308.27991L521.68689,302.32346L515.23407,303.81256L511.26309,306.29443L507.29211,308.27991L485.45175,323.17108L482.96991,320.19284L479.99167,321.68195L476.51706,317.711L478.99893,315.22913L475.52432,311.75452L497.36469,296.367L496.86832,293.38876L503.8175,288.92142L507.78848,290.90689L510.27036,289.41779L511.75946,286.93594L518.70868,295.37424L529.62885,295.87061L535.58533,298.35248L543.52728,311.25815z" id="imagebot_71"/>
   <path fill="#9c9312" fill-rule="evenodd" stroke="black" stroke-width="0.93437px" d="M479.76111,348.83377L455.53439,364.55624L456.26129,373.16251L487.2067,351.00055L479.76111,348.83377z" id="imagebot_70"/>
   <path fill="#c6c7bf" fill-rule="evenodd" stroke-width="1px" d="M580.75519,287.43231L538.0672,299.84161L533.10345,303.81256L534.59259,309.76904L537.5708,314.23639L546.50549,313.74002L554.94385,323.66745L580.75519,287.43231z" id="imagebot_69"/>
   <path fill="white" stroke="black" stroke-width="17.04854" stroke-miterlimit="4" stroke-dashoffset="0" id="imagebot_68" d="M388.57144,517.66589A188.57143,190.71428 0 1 1 11.42857,517.66589A188.57143,190.71428 0 1 1 388.57144,517.66589z" transform="matrix(0.827123,0,0,0.820313,30.01125,97.95758)"/>
   <path fill="#20221e" stroke-width="5.6" stroke-miterlimit="4" stroke-dashoffset="0" id="imagebot_67" d="M 218.571 522.666 A 27.8571 28.5714 0 1 1 162.857 522.666 A 27.8571 28.5714 0 1 1 218.571 522.666 Z"/>
   <path fill="#20221e" stroke-width="5.6" stroke-miterlimit="4" stroke-dashoffset="0" id="imagebot_66" d="M222.85715,521.23737A27.85714,28.57143 0 1 1 167.14285,521.23737A27.85714,28.57143 0 1 1 222.85715,521.23737z" transform="matrix(1.034091,0,0,1.011236,656.8507,-14.43604)"/>
   <path fill="black" stroke-width="0.93875" stroke-miterlimit="4" stroke-dashoffset="0" id="imagebot_65" d="M182.70457,444.84177C181.72592,445.87531 266.90369,559.58563 265.76044,560.43353C264.61716,561.28143 180.53004,446.76221 179.25691,447.39871C177.98378,448.03519 219.13347,584.02051 217.76917,584.42621C216.40485,584.83197 176.55669,448.45959 175.14262,448.62228C173.72859,448.78494 165.88693,590.64331 164.46614,590.55798C163.04533,590.47266 172.24239,448.69565 170.85799,448.36487C169.4736,448.03409 113.58642,578.6554 112.28049,578.08923C110.97456,577.52307 168.10756,447.44189 166.91978,446.65759C165.73199,445.87326 68.54012,549.50256 67.50658,548.52393C66.47305,547.54529 164.65089,444.84955 163.80299,443.7063C162.95511,442.56302 36.1813,506.70117 35.54481,505.42804C34.90833,504.15491 162.28934,441.23129 161.88359,439.867C161.47784,438.50269 20.4129,455.4136 20.25023,453.99957C20.08757,452.58554 161.30769,437.02356 161.39305,435.60275C161.47839,434.18195 23.13683,401.82596 23.4676,400.44156C23.79838,399.05716 161.8244,432.73383 162.39055,431.42789C162.9567,430.12198 44.02454,352.4017 44.80885,351.21393C45.59317,350.02615 163.77711,428.87952 164.75577,427.84598C165.73444,426.81244 80.55666,313.10208 81.69992,312.25418C82.84319,311.40631 166.93031,425.92554 168.20345,425.28903C169.47658,424.65256 128.32687,288.66724 129.69119,288.26151C131.05551,287.85577 170.90369,424.22815 172.31772,424.06549C173.73177,423.9028 181.57343,282.0444 182.99422,282.12976C184.41502,282.21509 175.21796,423.9921 176.60236,424.32288C177.98676,424.65363 233.87395,294.03235 235.17987,294.59848C236.48579,295.16464 179.3528,425.24585 180.54057,426.03018C181.72835,426.81448 278.92023,323.18515 279.95377,324.16382C280.9873,325.14246 182.80946,427.8382 183.65735,428.98145C184.50525,430.12469 311.27905,365.98657 311.91556,367.2597C312.55203,368.53284 185.17104,431.45645 185.57677,432.82074C185.98251,434.18506 327.04745,417.27414 327.21011,418.68817C327.3728,420.1022 186.15266,435.66418 186.06731,437.08499C185.98196,438.5058 324.32352,470.86176 323.99277,472.24615C323.66199,473.63058 185.63596,439.95392 185.06981,441.25986C184.50366,442.56577 303.43582,520.28607 302.65149,521.47382C301.86719,522.66162 183.68324,443.80823 182.70457,444.84177z" transform="matrix(1.006468,0,0,1.012876,683.8696,71.81567)"/>
   <rect fill="#8f160f" stroke-width="5.6" stroke-miterlimit="4" stroke-dashoffset="0" id="imagebot_64" width="8.14411" height="10.98541" x="551.5766" y="763.46497" ry="4.04061" rx="3.98122" transform="matrix(0.951858,-0.306538,0.422234,0.906487,0,0)"/>
   <path fill="#a99f50" fill-rule="evenodd" stroke="black" stroke-width="1px" d="M756.60425,360.23651L656.59912,154.16541L657.60931,148.10448L670.74127,144.06387L673.77173,145.07402L777.81744,359.22635L756.60425,360.23651z" id="imagebot_63"/>
   <path fill="#586666" fill-rule="evenodd" stroke="black" stroke-width="1.02882px" d="M839.16144,525.70056L749.10034,353.60049L750.64429,351.48996L750.65656,350.07419L768.25641,343.85449L769.82483,338.91238L763.05713,327.52686L762.45917,308.40714L766.30383,304.90057L776.19611,307.81769L779.17407,316.33875L781.24884,341.13477L784.11084,363.1058L787.81506,375.88083L849.36517,492.51508L853.13043,498.21112L858.48242,496.8414L866.10455,497.61511L872.15826,503.3309L873.62286,510.423L869.72327,520.3006L862.85175,520.94928L842.94507,529.27295L839.16144,525.70056z" id="imagebot_62"/>
   <path fill="black" stroke-width="0.93875" stroke-miterlimit="4" stroke-dashoffset="0" id="imagebot_61" d="M872.12555,512.04059A11.16837,9.67925 0 1 1 849.78876,512.04059A11.16837,9.67925 0 1 1 872.12555,512.04059z" transform="matrix(0.822222,0,0,1,152.5627,-1.985488)"/>
   <path opacity="0.8" fill="#f5f516" stroke-width="5.6" stroke-miterlimit="4" stroke-dashoffset="0" id="imagebot_60" d="M864.28571,519.80878A5.35714,5.71429 0 1 1 853.57147,519.80878A5.35714,5.71429 0 1 1 864.28571,519.80878z" transform="matrix(0.917504,0,0,0.856369,73.0677,64.74857)"/>
   <path fill="black" fill-rule="evenodd" stroke="black" stroke-width="1px" d="M653.36621,163.43484L678.11432,154.30658L674.76697,144.15187L648.49896,154.55759L653.36621,163.43484z" id="imagebot_59"/>
   <path fill="black" fill-rule="evenodd" stroke="black" stroke-width="1px" d="M685.12848,235.86391L689.34033,248.49948L696.36011,258.32715L724.43915,244.28761L713.90955,220.42046L685.12848,235.86391z" id="imagebot_58"/>
   <path fill="#e9e8e4" stroke-width="0.9" stroke-miterlimit="4" stroke-dashoffset="0" id="imagebot_57" d="M727.07153,257.09869A16.58418,17.90039 0 1 1 693.9032,257.09869A16.58418,17.90039 0 1 1 727.07153,257.09869z" transform="matrix(0.137566,0,0,0.127451,593.3563,206.9573)"/>
   <path fill="#e9e8e4" stroke-width="0.9" stroke-miterlimit="4" stroke-dashoffset="0" id="imagebot_56" d="M727.07153,257.09869A16.58418,17.90039 0 1 1 693.9032,257.09869A16.58418,17.90039 0 1 1 727.07153,257.09869z" transform="matrix(0.137566,0,0,0.127451,599.8497,219.2419)"/>
   <path fill="#e9e8e4" stroke-width="0.9" stroke-miterlimit="4" stroke-dashoffset="0" id="imagebot_55" d="M727.07153,257.09869A16.58418,17.90039 0 1 1 693.9032,257.09869A16.58418,17.90039 0 1 1 727.07153,257.09869z" transform="matrix(0.137566,0,0,0.127451,556.5027,124.8261)"/>
   <path fill="#313536" fill-rule="evenodd" stroke="black" stroke-width="1px" d="M432.33997,380.25385L433.82907,392.66315L428.36899,392.16678L417.94516,379.26111L420.9234,392.66315L418.44153,395.64139L412.48508,396.13776L393.12659,395.64139L388.65924,392.16678L387.66647,386.7067L389.65198,381.24661L393.62296,375.29013L390.64471,321.18558L392.63019,315.22913L397.09756,314.23639L399.08304,315.22913L402.06128,318.70374L405.03949,325.15656L407.52136,330.61667L409.50684,339.05499L415.46332,351.96066L420.9234,361.39172L424.89438,365.3627L432.33997,380.25385z" id="imagebot_54"/>
   <g id="imagebot_47" transform="matrix(0.999514,-3.116025e-2,3.116025e-2,0.999514,22.60103,7.545248)">
    <path fill="none" fill-opacity="0.75" fill-rule="evenodd" stroke="black" stroke-width="1px" id="imagebot_53" d="M273.65555,490.62109C273.66382,490.7034 273.67206,490.78571 273.65555,490.62109z"/>
    <path fill="#b4b4f4" fill-rule="evenodd" stroke="black" stroke-width="1.208px" id="imagebot_52" d="M262.57733,511.37402L269.19687,492.27426L334.91208,475.55966C334.91208,475.55966 329.78,493.80804 327.8576,494.26828C325.93524,494.72849 262.91699,511.62 262.57733,511.37402z"/>
    <path fill="#b4b4f4" stroke="black" stroke-width="1.2" stroke-miterlimit="4" stroke-dashoffset="0" transform="matrix(1.040403,-0.104384,0.112052,1.116837,-318.3804,-22.20905)" d="M544.76825,511.79242A4.83963,4.46735 0 1 1 535.08899,511.79242A4.83963,4.46735 0 1 1 544.76825,511.79242z" id="imagebot_51"/>
    <path fill="none" fill-opacity="0.75" fill-rule="evenodd" stroke="black" stroke-width="1px" id="imagebot_50" d="M274.86713,495.23874L272.30182,504.47568L287.88339,500.66748C287.88339,500.66748 291.85605,490.54105 290.89304,490.88708C289.93002,491.23315 275.36102,495.18918 274.86713,495.23874z"/>
    <path fill="none" fill-opacity="0.75" fill-rule="evenodd" stroke="black" stroke-width="1px" id="imagebot_49" d="M312.24954,485.62888L309.68423,494.86581L325.26581,491.05762C325.26581,491.05762 329.23846,480.93118 328.27545,481.27722C327.31244,481.62329 312.74344,485.57932 312.24954,485.62888z"/>
    <path fill="#1f1f95" stroke="black" stroke-width="1.2" stroke-miterlimit="4" stroke-dashoffset="0" transform="matrix(0.995005,-9.982881e-2,9.238867e-2,0.920848,-283.1633,77.06424)" d="M541.78998,510.05511A2.48186,2.73005 0 1 1 536.82623,510.05511A2.48186,2.73005 0 1 1 541.78998,510.05511z" id="imagebot_48"/>
   </g>
   <path fill="#28282a" fill-rule="evenodd" stroke="black" stroke-width="1px" d="M343.24118,502.11316L322.88995,499.13492L323.38632,490.20023C323.38632,490.20023 336.29199,482.75464 338.27747,482.75464C340.26297,482.75464 343.73755,503.60229 343.24118,502.11316z" id="imagebot_46"/>
   <path fill="black" stroke-width="0.93875" stroke-miterlimit="4" stroke-dashoffset="0" id="imagebot_45" d="M182.70457,444.84177C181.72592,445.87531 266.90369,559.58563 265.76044,560.43353C264.61716,561.28143 180.53004,446.76221 179.25691,447.39871C177.98378,448.03519 219.13347,584.02051 217.76917,584.42621C216.40485,584.83197 176.55669,448.45959 175.14262,448.62228C173.72859,448.78494 165.88693,590.64331 164.46614,590.55798C163.04533,590.47266 172.24239,448.69565 170.85799,448.36487C169.4736,448.03409 113.58642,578.6554 112.28049,578.08923C110.97456,577.52307 168.10756,447.44189 166.91978,446.65759C165.73199,445.87326 68.54012,549.50256 67.50658,548.52393C66.47305,547.54529 164.65089,444.84955 163.80299,443.7063C162.95511,442.56302 36.1813,506.70117 35.54481,505.42804C34.90833,504.15491 162.28934,441.23129 161.88359,439.867C161.47784,438.50269 20.4129,455.4136 20.25023,453.99957C20.08757,452.58554 161.30769,437.02356 161.39305,435.60275C161.47839,434.18195 23.13683,401.82596 23.4676,400.44156C23.79838,399.05716 161.8244,432.73383 162.39055,431.42789C162.9567,430.12198 44.02454,352.4017 44.80885,351.21393C45.59317,350.02615 163.77711,428.87952 164.75577,427.84598C165.73444,426.81244 80.55666,313.10208 81.69992,312.25418C82.84319,311.40631 166.93031,425.92554 168.20345,425.28903C169.47658,424.65256 128.32687,288.66724 129.69119,288.26151C131.05551,287.85577 170.90369,424.22815 172.31772,424.06549C173.73177,423.9028 181.57343,282.0444 182.99422,282.12976C184.41502,282.21509 175.21796,423.9921 176.60236,424.32288C177.98676,424.65363 233.87395,294.03235 235.17987,294.59848C236.48579,295.16464 179.3528,425.24585 180.54057,426.03018C181.72835,426.81448 278.92023,323.18515 279.95377,324.16382C280.9873,325.14246 182.80946,427.8382 183.65735,428.98145C184.50525,430.12469 311.27905,365.98657 311.91556,367.2597C312.55203,368.53284 185.17104,431.45645 185.57677,432.82074C185.98251,434.18506 327.04745,417.27414 327.21011,418.68817C327.3728,420.1022 186.15266,435.66418 186.06731,437.08499C185.98196,438.5058 324.32352,470.86176 323.99277,472.24615C323.66199,473.63058 185.63596,439.95392 185.06981,441.25986C184.50366,442.56577 303.43582,520.28607 302.65149,521.47382C301.86719,522.66162 183.68324,443.80823 182.70457,444.84177z" transform="matrix(1.006468,0,0,1.012876,17.73842,80.75085)"/>
   <path fill="#a9ada4" fill-rule="evenodd" stroke="black" stroke-width="1px" d="M448.72021,469.10443L457.65494,462.15521L459.64041,455.20602L467.58237,449.24954L459.64041,437.33661L449.71298,433.36566L433.82907,435.35114L414.96695,443.29309L400.07578,452.22778C400.07578,452.22778 383.19913,456.19876 379.22815,456.19876C375.2572,456.19876 331.57645,472.08267 331.57645,472.08267L233.29482,500.87222L347.46036,432.37292L370.29346,424.43094L384.19189,420.45999L390.14835,455.20602L400.07578,451.23505L392.13382,417.48175L412.98145,398.6196L425.88712,385.71393L417.94516,375.7865L399.08304,381.74298L380.22089,394.64865L188.62134,499.87949L183.65762,496.90125L171.74469,504.8432L161.81725,514.77063L169.7592,547.53119L208.47621,539.58923L215.42542,531.64728L230.31657,529.6618L357.38779,492.93027L409.01047,481.01736L429.85809,465.13345L438.79279,463.14798L438.79279,472.08267L448.72021,469.10443z" id="imagebot_44"/>
   <path fill="#e9f1f3" stroke-width="0.9" stroke-miterlimit="4" stroke-dashoffset="0" id="imagebot_43" d="M415.46332,330.1203A11.66474,11.41655 0 1 1 415.44196,329.42978" transform="matrix(0.276596,0,0,0.282609,285.6568,231.1172)"/>
   <path fill="#e9f1f3" stroke-width="0.9" stroke-miterlimit="4" stroke-dashoffset="0" id="imagebot_42" d="M415.46332,330.1203A11.66474,11.41655 0 1 1 415.44196,329.42978" transform="matrix(0.276596,0,0,0.282609,286.8976,292.9153)"/>
   <path fill="#e9f1f3" stroke-width="0.9" stroke-miterlimit="4" stroke-dashoffset="0" id="imagebot_41" d="M415.46332,330.1203A11.66474,11.41655 0 1 1 415.44196,329.42978" transform="matrix(0.276596,0,0,0.282609,316.6799,289.9372)"/>
   <path fill="#e4e3df" fill-rule="evenodd" stroke="black" stroke-width="1px" d="M575.14166,288.69373L556.30994,291.85849L531.06494,299.05789L529.12872,304.04102L530.18524,310.48373L534.20026,314.91156L539.14899,313.37338L545.10516,313.31442L552.11792,319.69818L575.14166,288.69373z" id="imagebot_40"/>
   <path fill="#888668" fill-rule="evenodd" stroke="black" stroke-width="1px" d="M523.67242,309.76904L533.59985,319.2001L487.06497,355.18707L481.2326,354.07022L477.01343,350.84381L475.64841,345.75601L523.67242,309.76904z" id="imagebot_39"/>
   <path fill="black" fill-rule="evenodd" stroke="black" stroke-width="1px" d="M516.22681,309.41806L532.60712,328.28018L530.00995,330.35083C520.89172,319.57803 518.41974,316.67987 514.06586,310.67145L516.22681,309.41806z" id="imagebot_38"/>
   <path fill="black" fill-rule="evenodd" stroke="black" stroke-width="1px" d="M526.30646,333.43857L523.32306,336.42197L505.24716,320.97849L505.42267,322.20694L502.79025,324.31287L502.08829,317.6441L504.5452,315.18719L523.14758,330.80615L523.84955,328.17374L525.95544,326.5943L526.30646,333.43857z" id="imagebot_37"/>
   <path fill="black" fill-rule="evenodd" stroke="black" stroke-width="1px" d="M514.54834,342.4765L511.56494,345.4599L493.48907,330.01642L493.66458,331.2449L491.03217,333.35083L490.33017,326.68204L492.78711,324.22513L511.38947,339.84409L512.09143,337.2117L514.19739,335.63223L514.54834,342.4765z" id="imagebot_36"/>
   <path fill="black" fill-rule="evenodd" stroke="black" stroke-width="1px" d="M502.61478,351.6022L499.63138,354.5856L481.55548,339.14212L481.73099,340.37057L479.09857,342.4765L478.39661,335.80774L480.85352,333.35083L499.45587,348.96979L500.15787,346.33737L502.26379,344.75793L502.61478,351.6022z" id="imagebot_35"/>
   <path fill="black" fill-rule="evenodd" stroke="black" stroke-width="1px" d="M490.68118,360.55237L487.69778,363.53577L470.49936,348.4433L471.72784,353.00613L469.44641,354.93658L466.46301,344.75793L468.91992,342.30099L487.52228,357.91998L488.22427,355.28757L490.3302,353.70813L490.68118,360.55237z" id="imagebot_34"/>
   <path fill="black" fill-rule="evenodd" stroke="black" stroke-width="1px" d="M478.04559,368.27411L475.06219,371.25751L456.98633,355.81406L457.8638,362.8338L455.75787,364.06226L453.82742,352.47968L456.28436,350.02274L474.88672,365.64172L473.13177,362.13184L475.2377,361.07886L478.04559,368.27411z" id="imagebot_33"/>
   <path fill="black" fill-rule="evenodd" stroke="black" stroke-width="1px" d="M461.72467,380.73419L458.74127,383.71759L457.16183,381.43616L456.81085,377.39981L458.56577,378.10178L456.98633,372.83698L459.79422,370.90652L461.72467,380.73419z" id="imagebot_32"/>
   <path fill="#141414" fill-rule="evenodd" stroke="black" stroke-width="1px" d="M366.08044,261.13504L390.6496,251.30737L386.08676,241.8307L358.3587,254.11528L362.92154,262.88998L366.08044,261.13504z" id="imagebot_31"/>
   <path opacity="0.44393" fill="#ecdbdb" stroke-width="0.9" stroke-miterlimit="4" stroke-dashoffset="0" id="imagebot_30" d="M 369.59 255.695 A 3.33439 3.33439 0 1 1 362.922 255.695 A 3.33439 3.33439 0 1 1 369.59 255.695 Z"/>
   <path fill="#f2efea" fill-rule="evenodd" stroke="black" stroke-width="0.4" stroke-miterlimit="4" d="M359.76266,170.58015L364.3255,168.12323L369.94131,168.12323L353.0939,185.67262L334.49152,194.44733L313.78323,201.46709L308.51843,202.16907L300.44571,201.81808L288.8631,195.14931L298.33978,193.04338L303.60458,195.50031L310.27335,195.85127L334.84253,187.77856L347.12711,181.10979L359.76266,170.58015z" id="imagebot_29"/>
   <path fill="#6d6f6f" fill-rule="evenodd" stroke-width="1px" d="M380.82193,243.54202L364.99307,251.30739L347.09958,221.65784L344.69083,217.0692L340.90567,213.89246L329.89426,207.89195L314.75363,206.48007L314.0654,199.77362L310.62433,195.53798L318.8829,189.89044L327.48553,188.83153L332.99121,189.18449L335.39996,198.71471L345.37903,199.06769L352.60526,203.65631L359.48737,208.95087L363.61664,214.95139L367.74591,223.42268L380.82193,243.54202z" id="imagebot_28"/>
   <path fill="#364242" fill-rule="evenodd" stroke="black" stroke-width="1px" d="M286.75717,197.25523C288.51212,196.90425 300.0947,193.39436 300.0947,193.39436L306.06149,194.79832L309.57138,191.99042L319.75003,186.3746L335.19351,177.9509L352.39191,172.33508L362.21957,169.52719L369.94131,169.17619L374.85516,168.82521L384.33182,168.12323L395.21246,166.36829L402.93417,161.80545C402.93417,161.80545 402.23221,159.69952 402.23221,158.29556C402.23221,156.89162 394.51047,155.13667 394.51047,155.13667L382.22589,154.08372L367.48441,157.24261L339.75635,162.50743L308.86942,170.22916L285.70419,173.73904L264.29395,177.24892L253.7643,179.35484L250.25443,180.40781L248.49948,185.67262L250.95639,190.23547L258.67813,192.3414L270.26074,194.44733L280.43939,196.20227L286.75717,197.25523z" id="imagebot_27"/>
   <path opacity="0.24766" fill="#f7f7f6" fill-rule="evenodd" stroke-width="1px" d="M266.75085,187.07658C267.21881,187.10042 270.41364,187.6413 273.7706,188.48055C276.01837,189.04247 280.34796,188.12955 282.8963,188.12955C285.48721,188.12955 288.52939,187.83418 290.96902,187.42757C292.45154,187.18048 295.82425,185.14622 297.2868,184.26868C299.5553,182.90758 301.79276,182.44022 304.30655,181.81177C308.60336,180.73756 312.44437,179.68956 316.59113,178.65286C319.39816,177.95113 321.67911,177.55638 324.31287,176.89793C324.78085,176.78094 325.24884,176.66394 325.71683,176.54694C328.24808,175.91412 330.10846,175.3613 332.38559,174.79201C333.96579,174.39696 337.40759,173.27325 338.35239,173.03706C339.92923,172.64285 335.5943,174.76711 334.14053,175.49397C332.62195,176.25327 331.10858,177.21719 329.5777,177.59991C327.68698,178.07259 326.28067,179.14198 325.36584,180.05682C324.3663,181.05637 322.32632,181.92757 321.15399,182.51373C319.55179,183.31483 318.11227,184.21008 316.59113,184.97066C314.48764,186.02242 313.08832,187.16257 310.62436,187.77856C308.18137,188.3893 306.37186,188.83151 303.60458,188.83151C301.31851,188.83151 299.1358,189.79549 296.93582,190.23547C294.64581,190.69348 292.60968,191.63943 290.26706,191.63943C288.08905,191.63943 285.56409,191.99042 283.24728,191.99042C280.79037,191.99042 278.33347,191.99042 275.87653,191.99042C273.86606,191.99042 272.64972,190.65723 270.96271,190.23547C269.07159,189.7627 267.1752,189.19829 266.75085,187.07658z" id="imagebot_26"/>
   <path fill="#e1ecef" stroke-width="4.086" stroke-miterlimit="4" stroke-dashoffset="0" id="imagebot_25" d="M633.70874,126.35567A0.43873,0.35099 0 1 1 632.8313,126.35567A0.43873,0.35099 0 1 1 633.70874,126.35567z" transform="matrix(3.6,0,0,4.25,-1645.185,-410.3926)"/>
   <path fill="#e1ecef" stroke-width="4.086" stroke-miterlimit="4" stroke-dashoffset="0" id="imagebot_24" d="M633.70874,126.35567A0.43873,0.35099 0 1 1 632.8313,126.35567A0.43873,0.35099 0 1 1 633.70874,126.35567z" transform="matrix(3.6,0,0,4.25,-1639.921,-394.686)"/>
   <path fill="#e1ecef" stroke-width="4.086" stroke-miterlimit="4" stroke-dashoffset="0" id="imagebot_23" d="M633.70874,126.35567A0.43873,0.35099 0 1 1 632.8313,126.35567A0.43873,0.35099 0 1 1 633.70874,126.35567z" transform="matrix(3.6,0,0,4.25,-1633.252,-379.2425)"/>
   <rect fill="#373735" stroke-width="4.086" stroke-miterlimit="4" stroke-dashoffset="0" id="imagebot_22" width="18.65942" height="27.90052" x="290.66034" y="603.77466" rx="8.54516" ry="7.98309" transform="matrix(0.483717,-0.875224,0.824631,0.565672,0,0)"/>
   <path fill="#2c2b29" stroke-width="4.086" stroke-miterlimit="4" stroke-dashoffset="0" id="imagebot_21" d="M 658.102 82.2189 A 10.4419 10.0909 0 1 1 637.219 82.2189 A 10.4419 10.0909 0 1 1 658.102 82.2189 Z"/>
   <path fill="#5b5653" stroke-width="4.086" stroke-miterlimit="4" stroke-dashoffset="0" id="imagebot_20" d="M 680.215 118.985 A 8.7747 8.7747 0 1 1 662.665 118.985 A 8.7747 8.7747 0 1 1 680.215 118.985 Z"/>
   <path fill="#28282a" fill-rule="evenodd" stroke="black" stroke-width="1px" d="M545.01642,503.85046L548.98737,507.82144C548.98737,507.82144 549.48376,509.31055 549.48376,511.79242C549.48376,514.27429 547.00189,518.74164 547.00189,518.74164L542.03815,521.71985L457.65494,516.25977L428.36899,512.78516L423.90164,509.80692L421.91614,503.3541L422.90891,497.39764L425.88712,491.93753L431.3472,487.96655L436.31094,487.47018L442.2674,487.96655L534.09619,499.38312L540.54901,500.87222L545.01642,503.85046z" id="imagebot_19"/>
   <path fill="#e1e1eb" stroke-width="4.086" stroke-miterlimit="4" stroke-dashoffset="0" id="imagebot_18" d="M510.27036,587.48914A37.47608,24.57041 0 1 1 435.31821,587.48914A37.47608,24.57041 0 1 1 510.27036,587.48914z" transform="matrix(0.15894,0,0,0.262626,362.6539,348.0713)"/>
   <g id="imagebot_10">
    <path fill="#e1ecef" stroke-width="4.086" stroke-miterlimit="4" stroke-dashoffset="0" transform="matrix(3.6,0,0,4.25,-1671.22,24.41802)" d="M633.70874,126.35567A0.43873,0.35099 0 1 1 632.8313,126.35567A0.43873,0.35099 0 1 1 633.70874,126.35567z" id="imagebot_17"/>
    <path fill="none" fill-opacity="0.75" fill-rule="evenodd" stroke="black" stroke-width="1px" id="imagebot_16" d="M513.74493,505.58777C513.74493,505.6705 513.74493,505.75323 513.74493,505.58777z"/>
    <path fill="#b4b4f4" fill-rule="evenodd" stroke="black" stroke-width="1.208px" id="imagebot_15" d="M500.65033,525.1311L509.14352,506.7876L576.19904,496.71674C576.19904,496.71674 569.27087,514.36163 567.31213,514.62769C565.35345,514.89368 500.96375,525.40979 500.65033,525.1311z"/>
    <path fill="#b4b4f4" stroke="black" stroke-width="1.2" stroke-miterlimit="4" stroke-dashoffset="0" transform="matrix(1.045626,0,0,1.122444,-24.13817,-63.78261)" d="M544.76825,511.79242A4.83963,4.46735 0 1 1 535.08899,511.79242A4.83963,4.46735 0 1 1 544.76825,511.79242z" id="imagebot_14"/>
    <path fill="none" fill-opacity="0.75" fill-rule="evenodd" stroke="black" stroke-width="1px" id="imagebot_13" d="M514.4895,510.30331L511.01492,519.23798L526.8988,517.00433C526.8988,517.00433 531.86255,507.32507 530.86981,507.57324C529.87701,507.82144 514.9859,510.30331 514.4895,510.30331z"/>
    <path fill="none" fill-opacity="0.75" fill-rule="evenodd" stroke="black" stroke-width="1px" id="imagebot_12" d="M552.64453,504.47327L549.16992,513.40796L565.05383,511.17429C565.05383,511.17429 570.01752,501.49506 569.02478,501.74323C568.03204,501.99142 553.14087,504.47327 552.64453,504.47327z"/>
    <path fill="#1f1f95" stroke="black" stroke-width="1.2" stroke-miterlimit="4" stroke-dashoffset="0" transform="matrix(1,0,0,0.925471,0.992744,38.51042)" d="M541.78998,510.05511A2.48186,2.73005 0 1 1 536.82623,510.05511A2.48186,2.73005 0 1 1 541.78998,510.05511z" id="imagebot_11"/>
   </g>
   <path fill="black" stroke-width="0.93875" stroke-miterlimit="4" stroke-dashoffset="0" id="imagebot_9" d="M872.12555,512.04059A11.16837,9.67925 0 1 1 849.78876,512.04059A11.16837,9.67925 0 1 1 872.12555,512.04059z" transform="matrix(0.822222,0,0,1,-521.2621,12.16113)"/>
   <path opacity="0.8" fill="#f5f516" stroke-width="5.6" stroke-miterlimit="4" stroke-dashoffset="0" id="imagebot_8" d="M864.28571,519.80878A5.35714,5.71429 0 1 1 853.57147,519.80878A5.35714,5.71429 0 1 1 864.28571,519.80878z" transform="matrix(0.917504,0,0,0.856369,-601.4346,79.05359)"/>
   <path fill="url(#imagebot_7)" fill-rule="evenodd" stroke-width="1px" d="M507.29211,262.61371C501.73199,265.97986 500.40341,270.81897 507.29211,272.54114C511.45499,273.58185 514.54529,274.52664 520.19781,274.52664C525.82336,274.52664 531.44891,274.52664 537.0744,274.52664C542.69995,274.52664 548.3255,274.52664 553.95105,274.52664C559.75275,274.52664 563.10645,273.47873 566.85675,272.54114C570.62329,271.59952 575.93707,269.52652 579.76239,268.57016C583.94897,267.52353 590.9967,268.89688 593.66083,269.5629C597.46069,270.51288 597.63184,278.09897 597.63184,281.47583C597.63184,288.33887 594.83221,289.01074 601.60278,292.39603C608.44116,295.81522 611.50134,287.49005 613.51569,283.46133C615.39569,279.70132 621.41669,273.57489 624.43591,270.55566C629.01971,265.9718 633.48285,263.05396 638.33429,260.62823C644.13605,257.72736 648.70844,254.44841 654.2182,251.69353C659.12958,249.23784 663.32233,243.58218 666.13116,240.77335C667.60938,239.2951 667.64764,229.74364 668.11664,227.86768C669.40656,222.70784 670.05542,220.11255 671.09485,215.95474C672.10913,211.89755 674.07312,208.85995 674.07312,203.04907C674.07312,198.46143 668.8974,197.8734 666.13116,195.10712C663.46588,192.44186 658.52087,191.96362 655.21094,191.13614C649.37061,189.67606 646.55426,192.84361 644.29077,195.10712C641.47003,197.92786 640.84644,202.6778 638.33429,206.0273C636.01801,209.11572 630.73914,210.15977 627.41412,210.99101C622.64508,212.18327 620.36169,214.73961 615.50122,215.95474C610.80176,217.12959 607.89197,218.84979 603.58826,219.92572C598.49121,221.2 594.85675,222.30598 589.68988,224.88943C584.6767,227.39603 579.81622,229.81281 575.79144,232.83139C571.93414,235.72435 568.79144,237.8078 564.87128,238.78786C560.75,239.81818 554.96741,242.25066 551.96558,243.75157C548.6806,245.39406 543.64319,246.7298 539.05994,246.7298C535.26239,246.7298 532.23267,250.70078 527.14697,250.70078C522.88513,250.70078 520.03625,255.82603 518.21228,257.64999C515.99628,259.86603 510.04388,261.513 507.29211,262.61371z" id="imagebot_6"/>
   <path opacity="0.65888" fill="url(#imagebot_5)" fill-rule="evenodd" stroke-width="1px" d="M437.80005,304.30893C440.06009,302.61172 446.73474,293.62744 446.73474,303.31619C446.73474,308.27991 446.73474,313.24365 446.73474,318.20734C446.73474,323.17108 446.73474,328.1348 446.73474,333.09851C446.73474,338.80991 447.72748,341.94232 447.72748,346.99692C447.72748,350.73618 449.71298,354.72464 449.71298,359.90259C449.71298,363.75583 450.70572,369.27386 450.70572,373.80099C450.70572,379.6398 451.54065,382.10449 452.69122,386.70667C454.05881,392.17706 455.49689,394.95123 456.66217,399.61234C458.37433,406.46091 451.29382,407.92126 449.71298,401.59784C448.6481,397.33829 448.72021,392.53128 448.72021,387.69943C448.72021,384.62625 447.49731,377.84406 446.73474,374.79376C445.66025,370.49579 442.69308,367.5618 441.77103,363.87357C440.68878,359.54456 441.77103,353.47107 441.77103,348.98242C441.77103,344.01871 441.77103,339.05499 441.77103,334.09125C441.77103,328.46561 439.91635,326.67261 438.79279,322.17834C437.62341,317.50079 437.80005,310.43048 437.80005,304.30893z" id="imagebot_4"/>
  </g>
  <title>Vrstva 1</title>
 </g>
</svg>