<?xml version="1.0" encoding="UTF-8" standalone="no"?>
<svg
   xmlns:dc="http://purl.org/dc/elements/1.1/"
   xmlns:cc="http://creativecommons.org/ns#"
   xmlns:rdf="http://www.w3.org/1999/02/22-rdf-syntax-ns#"
   xmlns:svg="http://www.w3.org/2000/svg"
   xmlns="http://www.w3.org/2000/svg"
   xmlns:sodipodi="http://sodipodi.sourceforge.net/DTD/sodipodi-0.dtd"
   xmlns:inkscape="http://www.inkscape.org/namespaces/inkscape"
   width="149"
   height="145"
   id="svg2996"
   version="1.1"
   inkscape:version="0.48.1 "
   sodipodi:docname="biker.svg">
  <defs
     id="defs3005" />
  <sodipodi:namedview
     pagecolor="#ffffff"
     bordercolor="#666666"
     borderopacity="1"
     objecttolerance="10"
     gridtolerance="10"
     guidetolerance="10"
     inkscape:pageopacity="0"
     inkscape:pageshadow="2"
     inkscape:window-width="1366"
     inkscape:window-height="706"
     id="namedview3003"
     showgrid="false"
     inkscape:zoom="4.0137931"
     inkscape:cx="73.988323"
     inkscape:cy="120.95895"
     inkscape:window-x="0"
     inkscape:window-y="0"
     inkscape:window-maximized="1"
     inkscape:current-layer="svg2996" />
  <metadata
     id="imagebot_4">image/svg+xmlSteren Gianninibicyclebicyclebike<rdf:RDF>
  <cc:Work
     rdf:about="">
    <dc:format>image/svg+xml</dc:format>
    <dc:type
       rdf:resource="http://purl.org/dc/dcmitype/StillImage" />
  </cc:Work>
</rdf:RDF>
</metadata>
  <path
     style="fill:#000000"
     d="M 95.5 0 L 92.96875 0.0625 L 90.4375 0.125 L 87.875 1.375 L 85.28125 2.65625 L 83.625 4.8125 L 81.96875 6.96875 L 81.46875 8.90625 L 80.9375 10.875 L 81.15625 12.78125 L 81.375 14.6875 L 77.96875 14.6875 L 74.5625 14.6875 L 72.6875 15.96875 C 71.6615 16.68855 69.98675 17.93695 68.96875 18.71875 L 67.125 20.125 L 64.25 20.125 L 61.40625 20.125 L 62.4375 21.25 L 63.5 22.375 L 65.3125 22.90625 L 67.125 23.46875 L 70.09375 23.46875 L 73.03125 23.46875 L 73.9375 22.96875 C 75.6825 22.03515 74.859 22.8377 72.375 24.5 C 71.004 25.4173 68.85275 27.10195 67.59375 28.21875 L 65.28125 30.25 L 65.84375 30.5625 L 66.375 30.90625 L 64.3125 31.5 L 62.28125 32.09375 L 60.71875 34 C 59.86975 35.0477 59.1875 36.0953 59.1875 36.3125 L 59.1875 36.6875 L 60.96875 36.875 L 62.75 37.0625 L 60.40625 37.15625 L 58.09375 37.21875 L 58.375 37.53125 C 58.536 37.69215 59.35675 37.99795 60.21875 38.21875 L 61.8125 38.625 L 59.4375 38.375 L 57.0625 38.125 L 56.1875 39.6875 L 55.3125 41.21875 L 56.15625 41.84375 L 57 42.4375 L 56.53125 42.4375 C 56.26825 42.4375 55.2145 43.2111 54.1875 44.125 L 52.3125 45.78125 L 53.8125 45.78125 L 55.34375 45.78125 L 55.65625 46.3125 L 56 46.84375 L 55.34375 47.25 L 54.6875 47.65625 L 52.6875 47.65625 L 50.71875 47.6875 L 49.59375 49.21875 C 48.98775 50.06385 48.20175 51.2809 47.84375 51.9375 L 47.1875 53.125 L 46.96875 56.625 L 46.71875 60.09375 L 47.96875 61.28125 C 48.65675 61.91995 49.21875 62.65055 49.21875 62.90625 C 49.21875 63.16205 49.739 64.1804 50.375 65.1875 L 51.53125 67.03125 L 53.6875 66.53125 L 55.875 66.03125 L 55.875 65.5 L 55.875 64.96875 L 54.40625 64.125 C 53.60525 63.6515 53.0615 63.15785 53.1875 63.03125 C 53.3145 62.90465 55.40575 64.27265 57.84375 66.09375 C 62.39275 69.49265 65.6035 71.319 68.9375 72.375 C 69.9825 72.706 71.09125 73.15725 71.40625 73.40625 L 71.96875 73.875 L 72.375 73.625 L 72.78125 73.375 L 74.875 74.09375 C 76.03 74.49175 77.2455 75.01825 77.5625 75.28125 L 78.15625 75.78125 L 78.59375 75.46875 L 79.0625 75.1875 L 79.375 75.6875 L 79.65625 76.15625 L 78.96875 76.15625 L 78.28125 76.15625 L 76.71875 77.9375 L 75.15625 79.71875 L 69.90625 80.03125 C 67.01725 80.20525 62.2505 80.38425 59.3125 80.40625 L 53.96875 80.4375 L 53.96875 79.9375 L 53.96875 79.40625 L 52.9375 79.5625 L 51.90625 79.71875 L 51 81.375 C 50.498 82.289 49.091 84.427 47.875 86.125 C 46.371 88.272 44.9735 90.2815 43.5625 92.3125 C 39.1625 89.4995 33.94175 87.84375 28.34375 87.84375 C 12.71775 87.84375 0 100.5625 0 116.1875 C 0 131.8135 12.71775 144.53125 28.34375 144.53125 C 43.96875 144.53125 56.6875 131.8135 56.6875 116.1875 C 56.6875 107.5485 52.8065 99.79675 46.6875 94.59375 C 48.1655 92.45975 49.67125 90.3115 51.28125 88.0625 C 52.01625 87.0045 52.7585 86.14625 52.9375 86.15625 C 53.1855 86.17025 59.98775 102.92975 61.84375 108.09375 L 62.15625 108.9375 L 61.5 108.9375 L 60.84375 108.9375 L 60.375 109.78125 C 60.117 110.25025 59.42475 111.587 58.84375 112.75 L 57.78125 114.875 L 57.78125 116.5 L 57.78125 118.125 L 58.75 120.1875 L 59.75 122.25 L 61.5 123.53125 C 62.452 124.24225 63.4265 125.073 63.6875 125.375 L 67.15625 125.4375 L 70.125 124.9375 L 72.25 123.0625 L 74.34375 121.21875 L 74.84375 119.46875 C 75.11075 118.50375 75.34175 116.89425 75.34375 115.90625 L 75.34375 114.125 L 76.125 113.8125 L 76.9375 113.5 L 77.125 114.0625 L 77.3125 114.625 L 78 114.625 L 78.65625 114.625 L 78.71875 113.78125 L 78.78125 112.96875 L 79 113.78125 L 79.1875 114.625 L 80.375 114.625 C 81.024 114.625 82.4615 114.402 83.5625 114.125 L 85.5625 113.625 L 86.1875 111.875 C 86.5275 110.912 86.89825 109.57425 87.03125 108.90625 L 87.28125 107.6875 L 86.53125 107.0625 L 85.78125 106.4375 L 85.0625 107.03125 L 84.34375 107.625 L 84.34375 106.78125 L 84.34375 105.96875 L 83.1875 106.1875 L 82 106.40625 L 82.25 106 L 82.5 105.59375 L 81.3125 105.125 C 80.6445 104.871 80.09375 104.55925 80.09375 104.40625 L 80.09375 104.125 L 80.5625 104.40625 L 81.03125 104.71875 L 81.90625 104.09375 C 82.39225 103.75175 85.77825 100.65175 89.40625 97.21875 C 93.03425 93.78475 96.68025 90.3935 97.53125 89.6875 L 99.09375 88.40625 L 101.5 92.75 C 95.744 97.942 92.125 105.44025 92.125 113.78125 C 92.125 129.40725 104.84275 142.125 120.46875 142.125 C 136.09375 142.125 148.8125 129.40725 148.8125 113.78125 C 148.8125 98.156249 136.09375 85.4375 120.46875 85.4375 C 114.96675 85.4375 109.82075 87.025 105.46875 89.75 L 104.03125 86.78125 C 103.35225 85.25825 102.14375 82.4565 101.34375 80.5625 L 99.90625 77.125 L 99.375 77.125 C 98.596 77.147 97.1875 78.3135 97.1875 78.9375 L 97.1875 79.5 L 91.71875 79.5 L 86.28125 79.5 L 85.5625 80.90625 L 84.8125 82.3125 L 92.0625 82.4375 L 99.3125 82.5625 L 99.4375 83.75 L 99.59375 84.9375 L 99.125 84.25 L 98.625 83.53125 L 96.8125 85.3125 L 95 87.09375 L 94.4375 87.09375 L 93.84375 87.09375 L 93.8125 87.6875 L 93.78125 88.28125 L 88.59375 92.78125 C 85.74175 95.26225 82.20375 98.4185 80.71875 99.8125 L 78 102.375 L 78.65625 103.375 L 79.28125 104.40625 L 78.46875 103.71875 L 77.625 103.03125 L 77.90625 101.71875 L 78.15625 100.375 L 77.28125 100.375 L 76.40625 100.375 L 75.65625 101.4375 L 74.90625 102.5 L 75.625 99.90625 C 76.026 98.47025 76.8445 96.22325 77.4375 94.90625 C 78.7245 92.04825 85.49625 79.84675 86.90625 77.84375 L 87.90625 76.4375 L 87.90625 74.71875 L 87.90625 72.96875 L 86 70.21875 C 84.961 68.70145 82.72925 66.03485 81.03125 64.28125 L 77.9375 61.09375 L 73.09375 57.90625 L 68.21875 54.71875 L 68.21875 54.28125 L 68.21875 53.8125 L 69.4375 54.625 L 70.6875 55.4375 L 71.59375 54.28125 C 72.08875 53.64545 72.8105 52.544 73.1875 51.8125 L 73.875 50.46875 L 72.8125 50.0625 L 71.78125 49.625 L 73.03125 49.59375 L 74.28125 49.5625 L 75.65625 47.96875 C 76.40125 47.09505 77.26175 45.9973 77.59375 45.5 L 78.1875 44.59375 L 77.75 45.5625 L 77.28125 46.5625 L 78 48.59375 C 78.384 49.70785 79.1365 51.50815 79.6875 52.59375 L 80.6875 54.5625 L 84.5625 58.59375 C 86.7015 60.81355 88.93925 63.279 89.53125 64.0625 C 90.12325 64.8459 90.7655 65.50765 90.9375 65.53125 C 91.1105 65.55485 92.03 65.91075 93 66.34375 L 94.78125 67.125 L 95.25 68.03125 C 95.511 68.51965 95.63025 68.99415 95.53125 69.09375 C 95.43225 69.19345 95.989 69.3202 96.75 69.375 L 98.125 69.46875 L 98.125 69.09375 C 98.125 68.87515 97.79825 68.41885 97.40625 68.09375 C 97.01425 67.76865 96.6875 67.28935 96.6875 67.03125 L 96.6875 66.5625 L 97.53125 67.59375 L 98.375 68.625 L 99.1875 68.3125 L 100.03125 68 L 100.03125 67.375 L 100.03125 66.75 L 99.1875 66.53125 L 98.375 66.3125 L 99.40625 66.25 L 100.4375 66.1875 L 100.75 66.6875 L 101.0625 67.15625 L 99.5625 68.5625 L 98.09375 69.9375 L 97.03125 70.0625 L 96 70.21875 L 95.875 72.375 L 95.75 74.5 L 96.1875 75.15625 L 96.59375 75.8125 L 97.375 75.53125 L 98.125 75.25 L 98.125 73.875 L 98.125 72.53125 L 100.09375 70.6875 L 102.0625 68.875 L 101.625 71.6875 C 101.394 73.2335 101.24425 75.75525 101.28125 77.28125 L 101.34375 80.0625 L 101.875 80.5625 L 102.375 81.09375 L 103.59375 79.9375 C 104.26375 79.3085 105.09325 78.34125 105.40625 77.78125 C 105.71925 77.22125 106.41575 75.92025 106.96875 74.90625 L 107.96875 73.0625 L 108.28125 71.28125 L 108.625 69.5 L 107.90625 69.5 L 107.21875 69.5 L 106.90625 68.5625 C 106.74025 68.0402 106.451 67.625 106.25 67.625 C 106.048 67.625 105.62875 67.09575 105.34375 66.46875 L 104.84375 65.34375 L 105.78125 65.09375 L 106.71875 64.84375 L 106.125 65.5625 L 105.53125 66.3125 L 106.5625 67.15625 C 107.1415 67.62525 107.625 68.24665 107.625 68.53125 L 107.625 69.03125 L 109.5 69.03125 L 111.34375 69.03125 L 111.65625 68.09375 L 111.96875 67.125 L 113.125 67.4375 L 114.28125 67.71875 L 114.28125 66.71875 L 114.28125 65.71875 L 113.625 65.71875 L 113 65.71875 L 111.53125 63.875 L 110.03125 62.03125 L 108.40625 61.71875 C 107.50025 61.54875 105.687 61.10845 104.375 60.71875 L 101.96875 60 L 97.3125 55.34375 C 94.7525 52.78925 91.96475 50.17065 91.09375 49.53125 L 89.5 48.375 L 90 44.65625 C 90.284 42.61415 90.53125 40.01045 90.53125 38.84375 L 90.53125 36.71875 L 91.59375 34.78125 C 92.18075 33.71165 92.927 32.3646 93.25 31.8125 L 93.84375 30.8125 L 93.84375 29.25 L 93.84375 27.65625 L 93.375 26.75 L 92.875 25.84375 L 92.0625 25.8125 L 91.25 25.8125 L 91.96875 25.34375 L 92.65625 24.875 L 91.59375 24.59375 L 90.53125 24.3125 L 90.8125 23.84375 L 91.09375 23.40625 L 91.78125 23.96875 L 92.4375 24.53125 L 92.6875 24.28125 L 92.9375 24.03125 L 90.375 21.09375 C 88.952 19.46285 87.5195 17.6194 87.1875 17 L 86.5625 15.875 L 86.9375 15.5 L 87.28125 15.15625 L 88.5625 16.59375 C 89.2595 17.38815 90.5955 18.99215 91.5625 20.15625 L 93.34375 22.28125 L 93.34375 18.875 L 93.375 15.5 L 94.09375 14.90625 L 94.8125 14.3125 L 94.8125 19.0625 L 94.8125 23.78125 L 96.625 24.34375 C 97.635 24.64625 98.823 24.875 99.25 24.875 L 99.96875 24.5 L 100.03125 23.6875 L 100.03125 22.5 L 100.375 21.90625 L 101.03125 21.0625 L 100.40625 20.53125 L 101.40625 19.8125 L 102.40625 19.125 L 102.40625 18.4375 L 102.40625 17.75 L 102.9375 17.75 L 103.4375 17.75 L 103.09375 16.9375 C 102.89775 16.4804 102.66475 15.4689 102.59375 14.6875 L 102.46875 13.25 L 103.03125 12.90625 C 103.33625 12.71235 104.276 12.53525 105.125 12.53125 L 106.6875 12.53125 L 106.6875 11.53125 C 106.6875 10.97395 106.40975 9.6374 106.09375 8.5625 L 105.53125 6.59375 L 102.90625 3.96875 L 100.25 1.3125 L 97.875 0.65625 L 95.5 0 z M 91.25 2.8125 L 94.40625 2.8125 L 97.5625 2.8125 L 99.625 4.25 L 101.6875 5.6875 L 102.75 7.28125 C 103.341 8.15895 103.8125 9.15175 103.8125 9.46875 L 103.8125 10.03125 L 100.65625 10.34375 L 97.5 10.6875 L 94.59375 11.65625 L 91.71875 12.65625 L 88.40625 12.875 L 85.0625 13.0625 L 84.5 12.65625 L 83.90625 12.25 L 84.40625 10.46875 C 84.67625 9.48995 85.338 7.94055 85.875 7.03125 L 86.84375 5.375 L 89.03125 4.09375 L 91.25 2.8125 z M 94.0625 2.9375 L 92.125 3.46875 L 90.1875 4 L 88.59375 5.0625 L 86.96875 6.15625 L 86.8125 6.96875 C 86.6125 8.01035 86.7755 8.0072 89.1875 6.75 L 91.1875 5.6875 L 93.84375 5.5 L 96.5 5.3125 L 98.25 5.8125 L 100.03125 6.28125 L 100.25 5.875 L 100.5 5.5 L 99.15625 4.53125 L 97.78125 3.53125 L 95.90625 3.25 L 94.0625 2.9375 z M 96.3125 6.5 L 93.78125 6.875 C 90.71525 7.3544 87.47475 8.5264 86.71875 9.4375 L 86.1875 10.125 L 86.46875 10.625 C 86.84975 11.2419 86.52075 11.28595 89.84375 10.09375 L 92.65625 9.0625 L 96.34375 8.84375 L 100.03125 8.625 L 100.03125 8.03125 L 100.03125 7.4375 L 98.1875 6.96875 L 96.3125 6.5 z M 87.28125 20.375 C 87.38125 20.2753 88.148 20.9169 89 21.8125 C 89.852 22.7081 90.3905 23.43655 90.1875 23.40625 C 89.9855 23.37595 89.42875 23.245 88.96875 23.125 L 88.15625 22.90625 L 88.375 22.5 L 88.625 22.09375 L 87.875 21.34375 C 87.45 20.91855 87.18125 20.4747 87.28125 20.375 z M 79.125 20.59375 L 79.125 21.03125 L 79.125 21.4375 L 78.0625 21.6875 C 77.4755 21.8149 76.55325 22.07545 76.03125 22.28125 L 75.09375 22.65625 L 75.34375 22.375 C 75.48775 22.2111 76.409 21.74735 77.375 21.34375 L 79.125 20.59375 z M 89.28125 23.90625 C 89.51925 23.88725 89.732 23.88935 89.875 23.90625 C 90.066 23.92885 90.118 23.99305 90 24.09375 C 89.891 24.18685 89.07025 24.3948 88.15625 24.5625 L 86.5 24.875 L 87.21875 24.40625 C 87.58075 24.16895 88.56725 23.96325 89.28125 23.90625 z M 85.71875 26.78125 C 85.84875 26.78125 85.34375 27.43535 84.59375 28.21875 C 83.84275 29.00225 83.13 29.625 83 29.625 C 82.869 29.625 83.374 29.00225 84.125 28.21875 C 84.875 27.43535 85.58775 26.78125 85.71875 26.78125 z M 81.96875 34.375 L 82.5 34.375 L 83.03125 34.375 L 82.6875 35.21875 C 82.4995 35.67575 82.197 37.21995 82 38.65625 L 81.625 41.25 L 81.5625 39.46875 L 81.5 37.6875 L 80.3125 37.96875 L 79.125 38.28125 L 79.125 37.8125 L 79.125 37.34375 L 80.5625 36.75 L 81.96875 36.15625 L 81.96875 35.28125 L 81.96875 34.375 z M 82.09375 46.5 L 82.3125 47.3125 C 82.4325 47.7695 82.4325 48.51175 82.3125 48.96875 L 82.09375 49.8125 L 82.09375 48.15625 L 82.09375 46.5 z M 63.09375 47.6875 C 63.35375 47.6875 64.4105 48.50425 65.4375 49.53125 L 67.3125 51.40625 L 66.6875 52.375 L 66.09375 53.375 L 65.125 53.40625 L 64.1875 53.4375 L 65.125 53.84375 L 66.0625 54.25 L 64.78125 54.28125 L 63.46875 54.3125 L 63.46875 54.8125 L 63.46875 55.28125 L 65.375 54.96875 L 67.25 54.6875 L 67.25 55.65625 L 67.25 56.65625 L 68.8125 57.46875 C 71.8195 59.01195 76.58325 62.31025 78.90625 64.46875 L 81.28125 66.65625 L 78.65625 69.03125 C 76.07125 71.37305 75.34375 71.824 75.34375 71 L 75.34375 70.5625 L 69.28125 66.5 C 62.46225 61.9255 61.859 61.4242 60 58.9375 L 58.65625 57.1875 L 58.96875 55.40625 C 59.52875 52.02315 61.84175 47.6875 63.09375 47.6875 z M 82.0625 50.75 L 82.3125 51.46875 C 82.4505 51.86045 83.537 53.0876 84.75 54.1875 C 87.572 56.7456 87.214 56.789 84.25 54.25 L 81.96875 52.3125 L 82.03125 51.53125 L 82.0625 50.75 z M 48.875 54.09375 L 49.0625 55.5 C 49.1605 56.2834 49.34075 57.4172 49.46875 58 L 49.71875 59.0625 L 51.1875 60.75 C 52.0025 61.6776 52.57575 62.5173 52.46875 62.625 C 52.11775 62.976 51.293 62.1759 50 60.25 L 48.75 58.375 L 48.8125 56.21875 L 48.875 54.09375 z M 86.96875 56.125 L 88.65625 57.34375 C 89.58825 58.01515 91.78625 59.2089 93.53125 60 C 95.27625 60.7911 96.6875 61.5595 96.6875 61.6875 C 96.6875 62.021 94.6985 61.91295 93.8125 61.53125 C 92.9555 61.16145 90.714 59.43185 88.5 57.46875 L 86.96875 56.125 z M 110.9375 64.53125 L 110.8125 65.71875 L 110.71875 66.90625 L 109.15625 67.0625 L 107.625 67.1875 L 107.625 66.75 L 107.625 66.3125 L 108.8125 66.5625 L 110 66.78125 L 110.46875 65.65625 L 110.9375 64.53125 z M 56.96875 66.125 L 52.96875 67.15625 L 48.96875 68.1875 L 46.125 67.90625 C 44.558 67.74785 42.86075 67.60215 42.34375 67.59375 L 41.40625 67.5625 L 40.8125 68.40625 C 39.9645 69.56635 40.027 69.9459 41.25 70.4375 L 42.34375 70.875 L 41.375 70.9375 L 40.4375 71 L 41.375 71.40625 L 42.34375 71.8125 L 41.78125 71.84375 L 41.25 71.875 L 41.46875 72.84375 C 41.60475 73.36575 41.86625 73.81775 42.03125 73.84375 C 42.19725 73.86875 44.0195 73.95625 46.0625 74.03125 L 49.75 74.15625 L 52.375 72.75 L 55 71.34375 L 54.6875 71.875 L 54.375 72.40625 L 55.84375 74.0625 C 56.65575 74.9885 57.856 76.606 58.5 77.625 L 59.65625 79.46875 L 60.875 79 C 61.545 78.745 62.34725 78.52725 62.65625 78.53125 L 63.21875 78.5625 L 62.5 79 L 61.8125 79.46875 L 67.4375 79.46875 L 73.0625 79.5 L 72.8125 78.8125 C 72.6725 78.4485 72.29075 77.29375 71.96875 76.21875 C 71.28175 73.92575 71.08675 73.748 67.96875 72.625 C 66.66275 72.155 64.47375 71.11825 63.09375 70.34375 L 60.59375 68.9375 L 59.9375 69.1875 L 59.3125 69.4375 L 59.375 68.71875 L 59.4375 68 L 58.21875 67.0625 L 56.96875 66.125 z M 102.15625 66.5 L 103.1875 67.0625 C 103.7575 67.3659 104.71125 68.2619 105.28125 69.0625 L 106.3125 70.53125 L 106.96875 70.28125 L 107.625 70.03125 L 107.625 70.875 C 107.625 71.35 107.3645 72.487 107.0625 73.375 L 106.53125 74.96875 L 105.125 76.75 L 103.75 78.53125 L 102.84375 78.53125 L 101.9375 78.53125 L 101.9375 76.3125 L 101.9375 74.09375 L 102.6875 71.0625 L 103.4375 68.0625 L 102.8125 67.28125 L 102.15625 66.5 z M 92.3125 66.8125 C 91.9245 66.8547 92.078 67.2777 92.75 68.0625 L 93.59375 69.03125 L 94.0625 68.90625 C 94.3135 68.82275 94.5855 68.496 94.6875 68.1875 L 94.875 67.625 L 93.59375 67.125 C 92.97275 66.8892 92.5455 66.7871 92.3125 66.8125 z M 58.3125 69.625 C 58.4135 69.6057 58.50425 69.5978 58.53125 69.625 C 58.63425 69.728 57.9735 70.15945 57.0625 70.59375 C 56.1525 71.02805 55.40625 71.307 55.40625 71.1875 C 55.40625 70.9032 57.6105 69.7598 58.3125 69.625 z M 50.96875 74.25 L 49.53125 74.78125 L 51.40625 78.9375 L 53.09375 78.28125 L 50.96875 74.25 z M 99.28125 75.21875 C 98.84225 75.21875 96.21875 76.635 96.21875 76.875 C 96.21875 77.257 97.07775 77.1395 98.34375 76.5625 C 99.40675 76.0785 100.00325 75.21875 99.28125 75.21875 z M 44.9375 78.0625 L 44.9375 79.21875 L 44.9375 80.375 L 45.9375 82.0625 C 47.0705 83.9825 47.5805 84.1805 47.9375 82.8125 L 48.1875 81.84375 L 48.9375 82.15625 L 49.6875 82.4375 L 49.6875 81.6875 L 49.6875 80.90625 L 48.75 80.3125 L 47.78125 79.71875 L 47.78125 78.90625 L 47.78125 78.0625 L 46.375 78.0625 L 44.9375 78.0625 z M 72.96875 82.8125 L 72.9375 83.15625 C 72.9335 83.35225 72.7195 83.82675 72.4375 84.21875 L 71.90625 84.9375 L 72.1875 84.15625 L 72.4375 83.34375 L 70.4375 83.15625 L 68.4375 82.96875 L 70.71875 82.90625 L 72.96875 82.8125 z M 55.40625 83.28125 L 60.25 83.34375 L 65.125 83.40625 L 64.28125 83.625 L 63.4375 83.84375 L 63.75 84.875 C 63.927 85.441 64.13775 86.114 64.21875 86.375 L 64.375 86.84375 L 61.59375 88.625 C 60.29075 89.699 58.73075 90.90625 58.46875 90.90625 L 58.09375 91.125 L 56.625 87.3125 C 55.944 85.6125 55.40625 84.008 55.40625 83.75 L 55.40625 83.28125 z M 120.46875 88.9375 C 134.20075 88.9375 145.3125 100.04925 145.3125 113.78125 C 145.3125 127.51325 134.20075 138.625 120.46875 138.625 C 106.73675 138.625 95.625 127.51325 95.625 113.78125 C 95.625 106.74425 98.52475 100.393 103.21875 95.875 L 106.78125 102.34375 L 110.8125 108.65625 L 112.59375 111 L 115.21875 113.0625 C 116.65475 114.1945 118.34375 115.33175 118.96875 115.59375 L 120.09375 116.0625 L 120.96875 115.28125 L 121.875 114.46875 L 121.875 113.625 L 121.875 112.78125 L 121.125 112.03125 L 120.375 111.3125 L 119.28125 111.3125 L 118.15625 111.3125 L 115.75 108.65625 L 113.3125 105.96875 L 110.46875 100.21875 L 106.96875 92.90625 C 110.85075 90.39625 115.49575 88.9375 120.46875 88.9375 z M 71.0625 91.3125 L 71.0625 92.15625 C 71.0545 93.44525 69.92925 97.342499 68.40625 101.4375 L 67.0625 105.125 L 66.46875 105.125 C 66.15075 105.125 65.779 105.34375 65.625 105.59375 L 65.34375 106.03125 L 66.5 106.78125 C 67.137 107.19925 68.11025 107.584 68.65625 107.625 L 69.625 107.6875 L 69.625 108.3125 L 69.625 108.9375 L 69.25 108.9375 C 69.032 108.9375 68.70225 108.796 68.53125 108.625 C 68.36025 108.454 67.452 108.18625 66.5 108.03125 L 64.75 107.75 L 63.40625 104.34375 L 62.03125 100.9375 L 63.34375 99.53125 C 64.06175 98.77225 65.66625 96.852 66.90625 95.25 L 69.15625 92.34375 L 70.125 91.84375 L 71.0625 91.3125 z M 28.34375 91.34375 C 33.20975 91.34375 37.76275 92.74325 41.59375 95.15625 C 39.65375 97.95125 37.70675 100.746 35.59375 103.75 L 33.125 107.25 L 29.78125 108.84375 L 26.46875 110.4375 L 24.90625 111.96875 C 24.04525 112.80675 23.09225 113.92175 22.78125 114.46875 L 22.21875 115.46875 L 22.75 117.1875 L 23.25 118.90625 L 23.65625 118.90625 L 24.0625 118.90625 L 24.0625 119.59375 L 24.0625 120.3125 L 24.53125 120.3125 C 24.79225 120.3125 25 120.52025 25 120.78125 L 25 121.28125 L 23.8125 121.28125 L 22.65625 121.28125 L 21.90625 120.15625 L 21.1875 119.03125 L 21.6875 117.71875 L 22.1875 116.375 L 21.9375 116.15625 L 21.6875 115.90625 L 21.40625 116.8125 C 21.24425 117.3075 21.0365 117.9835 20.9375 118.3125 L 20.75 118.90625 L 21.28125 120.09375 L 21.8125 121.25 L 22.75 121.53125 C 23.259 121.69325 24.4075 121.84375 25.3125 121.84375 L 26.96875 121.84375 L 27.21875 122.46875 L 27.46875 123.125 L 28.0625 122.875 L 28.6875 122.625 L 28.4375 123.9375 L 28.1875 125.21875 L 27.5 124.3125 L 26.8125 123.40625 L 27.125 124.46875 L 27.4375 125.5625 L 26.6875 125.84375 L 25.9375 126.125 L 25.9375 127.46875 L 25.9375 128.84375 L 27.03125 129.34375 L 28.09375 129.875 L 27.25 129.1875 L 26.4375 128.53125 L 26.4375 127.78125 L 26.4375 127 L 28.09375 126.21875 C 29.01175 125.78275 29.89125 125.25825 30.03125 125.03125 L 30.28125 124.59375 L 29.5625 124.875 L 28.875 125.15625 L 29.125 124.15625 L 29.40625 123.15625 L 30.125 123.75 L 30.84375 124.34375 L 30.28125 123.28125 C 29.96825 122.69425 29.502 122.21875 29.25 122.21875 L 28.8125 122.21875 L 28.8125 121.6875 L 28.8125 121.15625 L 29.5 121.4375 L 30.21875 121.71875 L 30.21875 121.25 L 30.21875 120.78125 L 30.9375 120.78125 L 31.65625 120.78125 L 31.65625 120.3125 L 31.65625 119.84375 L 32.40625 119.84375 L 33.1875 119.84375 L 32.90625 119.125 L 32.625 118.40625 L 33.0625 118.40625 L 33.46875 118.40625 L 33.3125 115.59375 L 33.125 112.75 L 33.53125 112.5 C 33.74325 112.369 36.09625 109.17725 38.78125 105.40625 C 40.92925 102.74825 42.8215 100.12075 44.6875 97.46875 C 49.8975 102.02075 53.1875 108.7175 53.1875 116.1875 C 53.1875 129.9195 42.07575 141.03125 28.34375 141.03125 C 14.61175 141.03125 3.5 129.9195 3.5 116.1875 C 3.5 102.4565 14.61175 91.34375 28.34375 91.34375 z M 126.84375 92.875 L 126.125 93.15625 L 125.40625 93.4375 L 125.40625 95 L 125.40625 96.59375 L 127.1875 97.21875 C 128.1675 97.56975 129.711 98.377 130.625 99 L 132.28125 100.125 L 133.375 98.90625 C 133.962 98.23125 134.4375 97.5205 134.4375 97.3125 C 134.4375 96.8525 130.487 94.367 128.375 93.5 L 126.84375 92.875 z M 55.4375 93.6875 L 54.71875 94.84375 L 54.1875 95.75 C 54.0055 96.599 53.5455 97.8615 53.1875 98.5625 L 52.5625 99.84375 L 53.8125 102.375 C 54.4995 103.763 55.26725 105.165 55.53125 105.5 L 56 106.09375 L 57.34375 104.5625 L 58.6875 103 L 58.53125 102.5 C 58.45325 102.239 57.78725 100.28 57.03125 98.125 L 55.84375 94.84375 L 55.4375 93.6875 z M 69.15625 104.5 L 69.15625 105.0625 L 69.15625 105.625 L 70.21875 106.0625 L 71.3125 106.5 L 70.53125 106.53125 L 69.75 106.5625 L 69.15625 105.8125 L 68.5625 105.09375 L 68.84375 104.8125 L 69.15625 104.5 z M 75.34375 105.6875 L 77.8125 106.625 C 79.1835 107.145 80.399 107.68125 80.5 107.78125 C 80.601 107.88125 80.0065 107.90075 79.1875 107.84375 L 77.71875 107.75 L 77.71875 107.34375 L 77.71875 106.96875 L 77.21875 107.25 L 76.75 107.5625 L 76.75 107.0625 L 76.75 106.5625 L 75.78125 106.5625 L 74.8125 106.5625 L 75.0625 106.125 L 75.34375 105.6875 z M 77.75 108.21875 L 77.25 109.25 C 76.413 110.982 76.721 111.127 78 109.625 L 79.21875 108.21875 L 78.6875 109.25 C 78.4035 109.82 78.1875 110.442 78.1875 110.625 L 78.1875 110.96875 L 80.25 110.65625 C 81.395 110.49925 83.2235 110.0635 84.3125 109.6875 L 86.3125 109.03125 L 86.15625 109.8125 L 86 110.59375 L 84.34375 110.9375 C 83.43175 111.1355 80.014 111.7615 76.75 112.3125 C 73.485 112.8645 70.278 113.37475 69.625 113.46875 L 68.4375 113.65625 L 67.25 113.09375 L 66.0625 112.5625 L 68.90625 112.21875 L 71.75 111.875 L 71.90625 111.40625 L 72.0625 110.9375 L 72.9375 111.15625 L 73.8125 111.375 L 74.84375 110.28125 L 75.875 109.15625 L 75.5625 110 L 75.21875 110.8125 L 75.75 110.8125 C 76.039 110.8125 76.28125 110.6495 76.28125 110.4375 C 76.28125 110.2265 76.62525 109.632 77.03125 109.125 L 77.75 108.21875 z M 32.1875 108.375 L 31.5625 109.34375 L 30.9375 110.34375 L 30.21875 110.375 C 29.82375 110.394 28.9655 110.513 28.3125 110.625 L 27.125 110.8125 L 28.5625 109.9375 C 29.3465 109.4435 30.48975 108.8695 31.09375 108.6875 L 32.1875 108.375 z M 81.03125 112.25 L 81.75 112.25 L 82.46875 112.25 L 82.46875 112.71875 L 82.46875 113.1875 L 81.75 113.1875 L 81.03125 113.1875 L 81.03125 112.71875 L 81.03125 112.25 z M 65.65625 114.0625 L 66.78125 114.21875 L 67.90625 114.375 L 68.09375 114.96875 L 68.28125 115.5625 L 66.90625 115.28125 L 65.5 115 L 65.1875 115.8125 L 64.875 116.65625 L 65.40625 117.28125 C 66.11825 118.13925 66.7555 118.11325 67.8125 117.15625 L 68.6875 116.375 L 68.6875 116.875 C 68.6875 117.158 68.3485 117.74625 67.9375 118.15625 C 67.0375 119.05725 66.353 119.087 65.25 118.25 L 64.40625 117.59375 L 64.40625 116.6875 L 64.40625 115.75 L 65.03125 114.90625 L 65.65625 114.0625 z M 60.09375 116.9375 C 60.17975 116.9295 60.27725 116.996 60.40625 117.125 C 60.55825 117.277 60.62325 117.89 60.53125 118.5 L 60.34375 119.59375 L 60.03125 118.4375 C 59.78525 117.5615 59.83575 116.9645 60.09375 116.9375 z M 62.0625 120.625 L 62.875 121.40625 L 63.65625 122.21875 L 63.21875 122.21875 C 62.96675 122.21475 62.4475 121.993 62.0625 121.75 L 61.34375 121.3125 L 61.71875 120.96875 L 62.0625 120.625 z M 10.53125 121.34375 L 9.96875 121.375 C 9.66675 121.379 8.962 121.49925 8.375 121.65625 L 7.28125 121.9375 L 7.28125 122.6875 C 7.28125 123.8315 8.988 127.0825 10.625 129.0625 C 11.434 130.0425 12.27475 130.84375 12.46875 130.84375 C 12.66175 130.84375 13.38575 130.238 14.09375 129.5 L 15.375 128.15625 L 14.375 127.25 C 13.815 126.748 12.7145 125.21475 11.9375 123.84375 L 10.53125 121.34375 z M 28.875 126.4375 L 27.875 126.9375 C 27.333 127.2275 26.90625 127.6865 26.90625 127.9375 C 26.90625 128.6845 27.77575 128.4585 28.34375 127.5625 L 28.84375 126.71875 L 28.6875 127.9375 L 28.5 129.125 L 30.0625 128.9375 L 31.4375 128.78125 C 31.4845 128.73225 31.55575 128.671 31.59375 128.625 C 31.60275 128.613 31.64525 128.54525 31.65625 128.53125 L 31.65625 128.28125 L 31.65625 127.8125 L 30.5 128.03125 L 29.34375 128.25 L 29.125 127.34375 L 28.875 126.4375 z "
     id="imagebot_3" />
</svg>
